<?xml version="1.0" encoding="UTF-8" standalone="no"?>
<svg xmlns:xlink="http://www.w3.org/1999/xlink" height="600.95px" width="802.05px" xmlns="http://www.w3.org/2000/svg">
  <g transform="matrix(1.0, 0.0, 0.0, 1.0, 0.0, 0.75)">
    <path d="M802.05 600.2 L0.0 600.2 0.0 0.2 802.05 0.2 802.05 600.2" fill="#e2a56a" fill-opacity="0.63529414" fill-rule="evenodd" stroke="none"/>
    <path d="M788.35 504.95 L11.45 504.95 11.45 498.95 788.35 498.95 788.35 504.95" fill="#fdad35" fill-opacity="0.5372549" fill-rule="evenodd" stroke="none"/>
    <path d="M788.35 504.95 L11.45 504.95 11.45 498.95 788.35 498.95 788.35 504.95 Z" fill="none" stroke="#993300" stroke-linecap="round" stroke-linejoin="round" stroke-opacity="0.65882355" stroke-width="0.1"/>
    <path d="M758.7 424.95 L788.6 498.95 11.65 498.95 61.65 399.95 697.6 399.95 748.6 399.95 758.7 424.95" fill="#cc6600" fill-opacity="0.5372549" fill-rule="evenodd" stroke="none"/>
    <path d="M758.7 424.95 L788.6 498.95 11.65 498.95 61.65 399.95 697.6 399.95 748.6 399.95 758.7 424.95 Z" fill="none" stroke="#993300" stroke-linecap="round" stroke-linejoin="round" stroke-opacity="0.61960787" stroke-width="0.1"/>
    <path d="M742.5 0.0 L742.5 135.0 Q742.5 142.0 735.5 142.0 L84.4 142.0 Q77.45 142.0 77.45 135.0 L77.45 0.0 742.5 0.0" fill="url(#gradient0)" fill-rule="evenodd" stroke="none"/>
    <path d="M77.45 0.0 L77.45 135.0 Q77.45 142.0 84.4 142.0 L735.5 142.0 Q742.5 142.0 742.5 135.0 L742.5 0.0" fill="none" stroke="#75d1f9" stroke-linecap="round" stroke-linejoin="round" stroke-width="1.5"/>
  </g>
  <defs>
    <linearGradient gradientTransform="matrix(1.0E-4, 0.0732, -0.0863, 1.0E-4, 410.95, 24.0)" gradientUnits="userSpaceOnUse" id="gradient0" spreadMethod="pad" x1="-819.2" x2="819.2">
      <stop offset="0.0" stop-color="#ffffff" stop-opacity="0.48235294"/>
      <stop offset="1.0" stop-color="#ceeffd" stop-opacity="0.972549"/>
    </linearGradient>
  </defs>
</svg>
