<?xml version="1.0" encoding="UTF-8" standalone="no"?>
<svg xmlns:xlink="http://www.w3.org/1999/xlink" height="72.6px" width="162.2px" xmlns="http://www.w3.org/2000/svg">
  <g transform="matrix(1.0, 0.0, 0.0, 1.0, 82.5, 32.05)">
    <path d="M-82.05 -4.5 L-12.65 -32.05 1.2 -30.1 1.2 -30.0 60.7 -20.4 60.65 -20.25 60.9 -20.4 79.7 -17.3 14.2 18.15 -82.05 -4.5 M57.4 -18.5 L-3.0 -28.5 -3.05 -28.45 -65.0 -4.65 -35.4 2.05 1.95 10.5 32.65 -5.5 57.4 -18.45 57.45 -18.45 57.4 -18.5 M14.2 34.1 L14.2 33.8 14.35 34.05 14.2 34.1" fill="#ffffff" fill-rule="evenodd" stroke="none"/>
    <path d="M-3.05 -28.45 L-3.0 -11.8 -2.8 -11.75 -35.4 2.05 -65.0 -4.65 -3.05 -28.45" fill="#808080" fill-rule="evenodd" stroke="none"/>
    <path d="M79.7 -17.3 L79.1 -0.9 17.6 33.15 Q13.8 35.65 14.35 34.05 L14.2 33.8 14.2 18.15 79.7 -17.3" fill="#a5a5a5" fill-rule="evenodd" stroke="none"/>
    <path d="M79.1 -0.9 L79.15 3.9 14.45 40.45 14.1 40.4 14.2 34.1 14.35 34.05 Q13.8 35.65 17.6 33.15 L79.1 -0.9" fill="#a4a4a4" fill-rule="evenodd" stroke="none"/>
    <path d="M14.1 40.4 L14.1 40.55 14.05 40.55 14.05 40.35 -82.5 18.85 -82.5 -4.6 -82.05 -4.5 14.2 18.15 14.2 33.8 14.2 34.1 14.1 40.4 M57.4 -18.5 L57.4 -18.45 32.65 -5.5 -2.8 -11.75 -3.0 -11.8 -3.05 -28.45 -3.0 -28.5 57.4 -18.5" fill="#8e8e8e" fill-rule="evenodd" stroke="none"/>
    <path d="M-2.8 -11.75 L32.65 -5.5 1.95 10.5 -35.4 2.05 -2.8 -11.75" fill="#626262" fill-rule="evenodd" stroke="none"/>
  </g>
</svg>
