<?xml version="1.0" encoding="UTF-8" standalone="no"?>
<svg xmlns:xlink="http://www.w3.org/1999/xlink" height="128.45px" width="104.25px" xmlns="http://www.w3.org/2000/svg">
  <g transform="matrix(1.0, 0.0, 0.0, 1.0, -44.5, -41.35)">
    <path d="M106.6 68.05 L110.2 77.65 Q109.65 118.35 108.55 141.05 L109.8 141.1 Q111.0 138.95 113.1 137.2 117.75 133.35 124.0 133.7 130.25 134.1 134.4 138.5 136.25 140.45 137.2 142.7 L141.05 140.85 137.3 143.0 138.0 145.55 Q142.0 146.15 144.95 147.95 148.9 150.35 148.75 153.5 148.55 156.6 144.35 158.5 140.15 160.4 134.5 160.05 L132.25 159.85 Q130.3 162.2 126.2 163.95 118.7 167.2 108.4 166.55 L106.4 166.4 Q105.0 173.4 103.2 166.0 96.25 164.85 91.05 161.8 88.3 160.2 86.65 158.4 L85.5 157.75 Q81.1 155.05 81.3 151.7 81.5 148.35 86.2 146.2 87.8 145.45 89.65 145.05 90.75 144.35 92.15 143.75 95.55 142.25 99.6 141.6 91.55 72.5 88.4 63.05 85.2 53.4 80.35 51.0 75.5 48.55 62.7 53.45 54.5 56.55 44.5 56.3 48.4 45.5 58.95 41.35 L69.5 41.35 Q108.05 56.9 90.85 47.6 101.4 51.7 106.6 68.05" fill="#ffffff" fill-opacity="0.6627451" fill-rule="evenodd" stroke="none"/>
  </g>
</svg>
