<?xml version="1.0" encoding="UTF-8" standalone="no"?>
<svg xmlns:xlink="http://www.w3.org/1999/xlink" height="68.25px" width="40.55px" xmlns="http://www.w3.org/2000/svg">
  <g transform="matrix(1.0, 0.0, 0.0, 1.0, 20.3, 34.15)">
    <path d="M-15.0 26.85 Q-14.9 27.25 -15.1 27.55 L-18.55 33.6 -19.1 34.0 -19.8 33.9 -20.2 33.35 Q-20.35 32.95 -20.15 32.65 L-16.7 26.6 -16.1 26.2 -15.4 26.25 -15.0 26.85" fill="#999999" fill-rule="evenodd" stroke="none"/>
    <path d="M-15.0 26.85 L-15.4 26.25 -16.1 26.2 -16.7 26.6 -20.15 32.65 Q-20.35 32.95 -20.2 33.35 L-19.8 33.9 -19.1 34.0 -18.55 33.6 -15.1 27.55 Q-14.9 27.25 -15.0 26.85 Z" fill="none" stroke="#cccccc" stroke-linecap="round" stroke-linejoin="round" stroke-width="0.1"/>
    <path d="M20.1 -32.05 Q20.4 -30.95 19.85 -30.0 L-12.4 25.9 Q-13.0 26.9 -14.1 27.2 -15.2 27.5 -16.2 26.9 -17.15 26.35 -17.45 25.25 -17.75 24.15 -17.15 23.15 L15.1 -32.75 Q15.65 -33.7 16.75 -34.0 L18.85 -33.75 Q19.85 -33.15 20.1 -32.05" fill="#cccccc" fill-rule="evenodd" stroke="none"/>
    <path d="M20.1 -32.05 Q19.85 -33.15 18.85 -33.75 L16.75 -34.0 Q15.65 -33.7 15.1 -32.75 L-17.15 23.15 Q-17.75 24.15 -17.45 25.25 -17.15 26.35 -16.2 26.9 -15.2 27.5 -14.1 27.2 -13.0 26.9 -12.4 25.9 L19.85 -30.0 Q20.4 -30.95 20.1 -32.05 Z" fill="none" stroke="#999999" stroke-linecap="round" stroke-linejoin="round" stroke-width="0.1"/>
    <path d="M12.35 -22.1 L14.55 -20.8 M11.4 -20.5 L13.6 -19.2 M10.95 -19.7 L13.15 -18.4 M10.5 -18.9 L12.7 -17.6 M11.9 -21.3 L14.1 -20.0 M13.25 -23.65 L15.45 -22.35 M12.8 -22.85 L15.0 -21.55 M7.75 -14.15 L9.95 -12.85 M5.9 -10.95 L8.1 -9.65 M6.4 -11.75 L8.6 -10.45 M5.45 -10.15 L7.65 -8.85 M2.25 -4.6 L4.45 -3.3 M1.35 -3.0 L3.55 -1.7 M0.9 -2.25 L3.1 -0.95 M0.4 -1.45 L2.6 -0.15 M2.7 -5.4 L4.9 -4.1 M1.8 -3.8 L4.0 -2.5 M3.15 -6.2 L5.35 -4.9 M3.65 -7.0 L5.85 -5.7 M5.0 -9.35 L7.2 -8.05 M4.55 -8.6 L6.75 -7.3 M4.1 -7.8 L6.3 -6.5 M10.05 -18.1 L12.25 -16.8 M8.65 -15.75 L10.85 -14.45 M6.85 -12.55 L9.05 -11.25 M7.3 -13.35 L9.5 -12.05 M8.2 -14.95 L10.4 -13.65 M9.15 -16.5 L11.35 -15.2 M9.6 -17.3 L11.8 -16.0 M-2.8 4.1 L-0.6 5.4 M-2.35 3.35 L-0.15 4.65 M-4.15 6.5 L-1.95 7.8 M-4.6 7.3 L-2.4 8.6 M-3.25 4.9 L-1.05 6.2 M-5.1 8.1 L-2.9 9.4 M-5.55 8.9 L-3.35 10.2 M-3.7 5.7 L-1.5 7.0 M-6.0 9.7 L-3.8 11.0 M-6.45 10.45 L-4.25 11.75 M-7.85 12.85 L-5.65 14.15 M-8.3 13.65 L-6.1 14.95 M-7.35 12.05 L-5.15 13.35 M-6.9 11.25 L-4.7 12.55 M-0.05 -0.65 L2.15 0.65 M-1.85 2.55 L0.35 3.85 M-0.5 0.15 L1.7 1.45 M-0.95 0.95 L1.25 2.25 M-1.4 1.75 L0.8 3.05" fill="none" stroke="#ffffff" stroke-linecap="round" stroke-linejoin="round" stroke-width="0.1"/>
  </g>
</svg>
