<?xml version="1.0" encoding="UTF-8" standalone="no"?>
<svg xmlns:xlink="http://www.w3.org/1999/xlink" height="109.5px" width="149.1px" xmlns="http://www.w3.org/2000/svg">
  <g transform="matrix(1.0, 0.0, 0.0, 1.0, 103.05, 94.0)">
    <path d="M32.15 -77.95 L-101.4 -77.35 -91.25 -84.15 42.6 -83.35 32.15 -77.95" fill="#ffffff" fill-rule="evenodd" stroke="none"/>
    <path d="M-68.6 -59.6 L6.5 -59.6 6.5 -15.45 -69.05 -16.35 -68.6 -59.6" fill="url(#gradient0)" fill-rule="evenodd" stroke="none"/>
    <path d="M-92.35 5.05 L-92.35 -59.6 -68.6 -59.6 -69.05 -16.35 -92.35 5.05" fill="url(#gradient1)" fill-rule="evenodd" stroke="none"/>
    <path d="M6.5 -15.45 L6.5 5.05 -92.35 5.05 -69.05 -16.35 6.5 -15.45" fill="#666666" fill-rule="evenodd" stroke="none"/>
    <path d="M-68.6 -59.6 L6.5 -59.6 6.5 -15.45 6.5 5.05 -92.35 5.05 -92.35 -59.6 -68.6 -59.6 -69.05 -16.35 6.5 -15.45 M-92.35 5.05 L-69.05 -16.35" fill="none" stroke="#666666" stroke-linecap="round" stroke-linejoin="round" stroke-width="1.0"/>
    <path d="M42.85 -94.0 L46.05 -92.95 45.1 -22.4 Q35.55 13.45 34.6 14.4 33.65 15.5 32.15 15.5 L-99.55 15.5 Q-100.9 15.5 -102.0 14.4 -103.05 13.45 -103.05 12.05 L-103.05 -74.2 Q-103.05 -75.7 -102.0 -76.9 L-80.5 -92.3 42.85 -94.0" fill="url(#gradient2)" fill-rule="evenodd" stroke="none"/>
    <path d="M-100.6 9.15 L-100.6 -71.65 Q-100.6 -73.05 -99.55 -74.0 -98.45 -75.05 -97.05 -75.05 L29.8 -75.05 Q31.15 -75.05 32.25 -74.0 33.2 -73.05 33.2 -71.65 L33.2 9.15 Q33.2 10.55 32.25 11.65 31.15 12.7 29.8 12.7 L-97.05 12.7 Q-98.45 12.7 -99.55 11.65 -100.6 10.55 -100.6 9.15" fill="url(#gradient3)" fill-rule="evenodd" stroke="none"/>
    <path d="M-87.4 -21.65 Q-90.8 -21.65 -93.3 -24.1 -95.65 -26.45 -95.65 -29.8 -95.65 -33.3 -93.3 -35.8 -90.8 -38.25 -87.4 -38.25 -83.95 -38.25 -81.5 -35.8 -79.15 -33.3 -79.15 -29.8 -79.15 -26.45 -81.5 -24.1 -83.95 -21.65 -87.4 -21.65" fill="url(#gradient4)" fill-rule="evenodd" stroke="none"/>
    <path d="M-87.4 -23.45 Q-89.95 -23.45 -91.9 -25.3 -93.8 -27.2 -93.8 -29.8 -93.8 -32.55 -91.9 -34.5 -89.95 -36.3 -87.4 -36.3 -84.85 -36.3 -82.9 -34.5 -80.95 -32.55 -80.95 -29.8 -80.95 -27.2 -82.9 -25.3 -84.85 -23.45 -87.4 -23.45" fill="url(#gradient5)" fill-rule="evenodd" stroke="none"/>
    <path d="M-87.4 -23.45 Q-84.85 -23.45 -82.9 -25.3 -80.95 -27.2 -80.95 -29.8 -80.95 -32.55 -82.9 -34.5 -84.85 -36.3 -87.4 -36.3 -89.95 -36.3 -91.9 -34.5 -93.8 -32.55 -93.8 -29.8 -93.8 -27.2 -91.9 -25.3 -89.95 -23.45 -87.4 -23.45 Z" fill="none" stroke="#6f7072" stroke-linecap="butt" stroke-linejoin="miter" stroke-width="0.25"/>
    <path d="M-82.9 -34.5 Q-80.95 -32.55 -80.95 -29.8 L-80.95 -29.05 Q-82.6 -28.8 -85.15 -29.8 -87.8 -30.65 -89.75 -30.55 L-93.8 -29.45 -93.8 -29.8 Q-93.8 -32.55 -91.9 -34.5 -90.05 -36.3 -87.4 -36.3 -84.7 -36.3 -82.9 -34.5" fill="url(#gradient6)" fill-rule="evenodd" stroke="none"/>
    <path d="M-87.4 -35.35 Q-86.75 -35.35 -86.55 -34.5 -84.85 -29.25 -86.55 -25.4 -86.75 -24.35 -87.4 -24.35 -88.25 -24.35 -88.25 -25.4 -90.05 -29.8 -88.25 -34.5 -88.25 -35.35 -87.4 -35.35" fill="url(#gradient7)" fill-rule="evenodd" stroke="none"/>
    <path d="M-87.4 -35.35 Q-86.75 -35.35 -86.55 -34.5 -84.85 -29.25 -86.55 -25.4 -86.75 -24.35 -87.4 -24.35 -88.25 -24.35 -88.25 -25.4 -90.05 -29.8 -88.25 -34.5 -88.25 -35.35 -87.4 -35.35 Z" fill="none" stroke="#6f7072" stroke-linecap="butt" stroke-linejoin="miter" stroke-width="0.25"/>
    <path d="M-89.65 -11.05 L-85.15 -11.05 Q-83.2 -11.05 -83.2 -9.35 -83.2 -8.7 -83.75 -8.15 -84.4 -7.65 -85.15 -7.65 L-89.65 -7.65 Q-91.35 -7.65 -91.35 -9.35 -91.35 -11.05 -89.65 -11.05" fill="url(#gradient8)" fill-rule="evenodd" stroke="none"/>
    <path d="M-89.65 -11.05 L-85.15 -11.05 Q-83.2 -11.05 -83.2 -9.35 -83.2 -8.7 -83.75 -8.15 -84.4 -7.65 -85.15 -7.65 L-89.65 -7.65 Q-91.35 -7.65 -91.35 -9.35 -91.35 -11.05 -89.65 -11.05 Z" fill="none" stroke="#6f7072" stroke-linecap="butt" stroke-linejoin="miter" stroke-width="0.4"/>
    <path d="M-89.65 -4.2 L-85.15 -4.2 Q-83.2 -4.2 -83.2 -2.5 -83.2 -0.8 -85.15 -0.8 L-89.65 -0.8 Q-91.35 -0.8 -91.35 -2.5 -91.35 -4.2 -89.65 -4.2" fill="url(#gradient9)" fill-rule="evenodd" stroke="none"/>
    <path d="M-89.65 -4.2 L-85.15 -4.2 Q-83.2 -4.2 -83.2 -2.5 -83.2 -0.8 -85.15 -0.8 L-89.65 -0.8 Q-91.35 -0.8 -91.35 -2.5 -91.35 -4.2 -89.65 -4.2 Z" fill="none" stroke="#6f7072" stroke-linecap="butt" stroke-linejoin="miter" stroke-width="0.4"/>
    <path d="M-89.65 2.75 L-85.15 2.75 Q-83.2 2.75 -83.2 4.45 -83.2 5.1 -83.75 5.65 -84.4 6.2 -85.15 6.2 L-89.65 6.2 Q-91.35 6.2 -91.35 4.45 -91.35 2.75 -89.65 2.75" fill="url(#gradient10)" fill-rule="evenodd" stroke="none"/>
    <path d="M-89.65 2.75 L-85.15 2.75 Q-83.2 2.75 -83.2 4.45 -83.2 5.1 -83.75 5.65 -84.4 6.2 -85.15 6.2 L-89.65 6.2 Q-91.35 6.2 -91.35 4.45 -91.35 2.75 -89.65 2.75 Z" fill="none" stroke="#6f7072" stroke-linecap="butt" stroke-linejoin="miter" stroke-width="0.4"/>
    <path d="M-97.15 -62.2 L-80.65 -62.2 Q-79.6 -62.2 -79.6 -60.95 L-79.6 -53.35 Q-79.6 -52.05 -80.65 -52.05 L-97.15 -52.05 Q-98.1 -52.05 -98.1 -53.35 L-98.1 -60.95 Q-98.1 -62.2 -97.15 -62.2" fill="url(#gradient11)" fill-rule="evenodd" stroke="none"/>
    <path d="M-97.15 -62.2 L-80.65 -62.2 Q-79.6 -62.2 -79.6 -60.95 L-79.6 -53.35 Q-79.6 -52.05 -80.65 -52.05 L-97.15 -52.05 Q-98.1 -52.05 -98.1 -53.35 L-98.1 -60.95 Q-98.1 -62.2 -97.15 -62.2 Z" fill="none" stroke="#6f7072" stroke-linecap="butt" stroke-linejoin="miter" stroke-width="0.35000000000000003"/>
    <path d="M-97.15 -62.2 L-80.65 -62.2 Q-79.6 -62.2 -79.6 -60.95 L-79.6 -56.65 Q-80.75 -56.1 -87.05 -58.25 -93.3 -60.3 -98.1 -57.85 L-98.1 -60.95 Q-98.1 -62.2 -97.15 -62.2" fill="url(#gradient12)" fill-rule="evenodd" stroke="none"/>
    <path d="M1.95 -68.3 L2.15 -67.8 1.95 -67.35 Q1.4 -66.2 1.0 -66.2 L-26.95 -66.2 Q-27.4 -66.2 -27.9 -67.35 L-28.15 -67.8 -27.9 -68.3 Q-27.4 -69.5 -26.95 -69.5 L1.0 -69.5 Q1.4 -69.5 1.95 -68.3" fill="url(#gradient13)" fill-rule="evenodd" stroke="none"/>
  </g>
  <defs>
    <linearGradient gradientTransform="matrix(0.0603, 0.0, 0.0, 0.0394, -42.9, -27.3)" gradientUnits="userSpaceOnUse" id="gradient0" spreadMethod="pad" x1="-819.2" x2="819.2">
      <stop offset="0.0" stop-color="#8c9aa3"/>
      <stop offset="0.4980392156862745" stop-color="#cbd6db"/>
      <stop offset="0.9764705882352941" stop-color="#94a2aa"/>
    </linearGradient>
    <linearGradient gradientTransform="matrix(0.0603, 0.0, 0.0, 0.0394, -42.9, -27.3)" gradientUnits="userSpaceOnUse" id="gradient1" spreadMethod="pad" x1="-819.2" x2="819.2">
      <stop offset="0.0" stop-color="#8c9aa3"/>
      <stop offset="0.4980392156862745" stop-color="#cbd6db"/>
    </linearGradient>
    <linearGradient gradientTransform="matrix(0.0585, 0.0409, 0.0409, -0.0585, -34.35, -31.7)" gradientUnits="userSpaceOnUse" id="gradient2" spreadMethod="pad" x1="-819.2" x2="819.2">
      <stop offset="0.0" stop-color="#a1afb7"/>
      <stop offset="0.4980392156862745" stop-color="#627076"/>
    </linearGradient>
    <linearGradient gradientTransform="matrix(0.0573, 0.0372, 0.0372, -0.0573, -33.15, -30.85)" gradientUnits="userSpaceOnUse" id="gradient3" spreadMethod="pad" x1="-819.2" x2="819.2">
      <stop offset="0.0" stop-color="#cdd9e0"/>
      <stop offset="0.4980392156862745" stop-color="#ffffff"/>
    </linearGradient>
    <linearGradient gradientTransform="matrix(0.0, 0.0071, 0.0071, 0.0, -87.4, -29.7)" gradientUnits="userSpaceOnUse" id="gradient4" spreadMethod="pad" x1="-819.2" x2="819.2">
      <stop offset="0.0" stop-color="#8c9aa3"/>
      <stop offset="0.4980392156862745" stop-color="#cbd6db"/>
    </linearGradient>
    <linearGradient gradientTransform="matrix(0.0054, -0.0056, -0.0056, -0.0054, -86.95, -30.45)" gradientUnits="userSpaceOnUse" id="gradient5" spreadMethod="pad" x1="-819.2" x2="819.2">
      <stop offset="0.0" stop-color="#cdd9e0"/>
      <stop offset="0.4980392156862745" stop-color="#ffffff"/>
    </linearGradient>
    <linearGradient gradientTransform="matrix(0.0055, 1.0E-4, 1.0E-4, -0.0055, -86.65, -32.8)" gradientUnits="userSpaceOnUse" id="gradient6" spreadMethod="pad" x1="-819.2" x2="819.2">
      <stop offset="0.0" stop-color="#cdd9e0"/>
      <stop offset="0.4980392156862745" stop-color="#ffffff"/>
    </linearGradient>
    <linearGradient gradientTransform="matrix(0.0019, 0.0047, 0.0047, -0.0019, -87.4, -29.7)" gradientUnits="userSpaceOnUse" id="gradient7" spreadMethod="pad" x1="-819.2" x2="819.2">
      <stop offset="0.0" stop-color="#cdd9e0"/>
      <stop offset="0.4980392156862745" stop-color="#ffffff"/>
    </linearGradient>
    <linearGradient gradientTransform="matrix(0.0, -0.0015, -0.0015, 0.0, -87.3, -8.9)" gradientUnits="userSpaceOnUse" id="gradient8" spreadMethod="pad" x1="-819.2" x2="819.2">
      <stop offset="0.0" stop-color="#b7c6ce"/>
      <stop offset="0.4980392156862745" stop-color="#ffffff"/>
    </linearGradient>
    <linearGradient gradientTransform="matrix(0.0, -0.0015, -0.0015, 0.0, -87.3, -3.05)" gradientUnits="userSpaceOnUse" id="gradient9" spreadMethod="pad" x1="-819.2" x2="819.2">
      <stop offset="0.0" stop-color="#b7c6ce"/>
      <stop offset="0.4980392156862745" stop-color="#ffffff"/>
    </linearGradient>
    <linearGradient gradientTransform="matrix(0.0, -0.0015, -0.0015, 0.0, -87.3, 4.9)" gradientUnits="userSpaceOnUse" id="gradient10" spreadMethod="pad" x1="-819.2" x2="819.2">
      <stop offset="0.0" stop-color="#b7c6ce"/>
      <stop offset="0.4980392156862745" stop-color="#ffffff"/>
    </linearGradient>
    <linearGradient gradientTransform="matrix(0.0055, -0.0065, -0.0065, -0.0055, -89.0, -57.0)" gradientUnits="userSpaceOnUse" id="gradient11" spreadMethod="pad" x1="-819.2" x2="819.2">
      <stop offset="0.0" stop-color="#231f20"/>
      <stop offset="0.4980392156862745" stop-color="#5d686f"/>
    </linearGradient>
    <linearGradient gradientTransform="matrix(-0.0082, 0.0016, 0.0016, 0.0082, -88.15, -59.45)" gradientUnits="userSpaceOnUse" id="gradient12" spreadMethod="pad" x1="-819.2" x2="819.2">
      <stop offset="0.0" stop-color="#838587"/>
      <stop offset="0.4980392156862745" stop-color="#4d5359"/>
    </linearGradient>
    <linearGradient gradientTransform="matrix(0.0115, 0.0051, 0.0051, -0.0115, -13.15, -67.9)" gradientUnits="userSpaceOnUse" id="gradient13" spreadMethod="pad" x1="-819.2" x2="819.2">
      <stop offset="0.0" stop-color="#8c9aa3"/>
      <stop offset="0.4980392156862745" stop-color="#cbd6db"/>
    </linearGradient>
  </defs>
</svg>
