<?xml version="1.0" encoding="UTF-8" standalone="no"?>
<svg xmlns:xlink="http://www.w3.org/1999/xlink" height="68.25px" width="40.55px" xmlns="http://www.w3.org/2000/svg">
  <g transform="matrix(1.0, 0.0, 0.0, 1.0, -44.55, 425.65)">
    <path d="M48.15 -364.9 Q48.35 -365.2 48.75 -365.3 L49.45 -365.25 49.85 -364.65 49.75 -363.95 46.3 -357.9 45.75 -357.5 45.05 -357.6 Q44.75 -357.75 44.65 -358.15 44.5 -358.55 44.7 -358.85 L48.15 -364.9" fill="#999999" fill-rule="evenodd" stroke="none"/>
    <path d="M48.15 -364.9 L44.7 -358.85 Q44.5 -358.55 44.65 -358.15 44.75 -357.75 45.05 -357.6 L45.75 -357.5 46.3 -357.9 49.75 -363.95 49.85 -364.65 49.45 -365.25 48.75 -365.3 Q48.35 -365.2 48.15 -364.9 Z" fill="none" stroke="#cccccc" stroke-linecap="round" stroke-linejoin="round" stroke-width="0.1"/>
    <path d="M84.95 -423.55 Q85.25 -422.45 84.7 -421.5 L52.45 -365.6 Q51.85 -364.6 50.75 -364.3 49.65 -364.0 48.65 -364.6 47.7 -365.15 47.4 -366.25 47.1 -367.35 47.7 -368.35 L79.95 -424.25 Q80.5 -425.2 81.6 -425.5 L83.7 -425.25 Q84.7 -424.65 84.95 -423.55" fill="#cccccc" fill-rule="evenodd" stroke="none"/>
    <path d="M84.95 -423.55 Q84.7 -424.65 83.7 -425.25 L81.6 -425.5 Q80.5 -425.2 79.95 -424.25 L47.7 -368.35 Q47.1 -367.35 47.4 -366.25 47.7 -365.15 48.65 -364.6 49.65 -364.0 50.75 -364.3 51.85 -364.6 52.45 -365.6 L84.7 -421.5 Q85.25 -422.45 84.95 -423.55 Z" fill="none" stroke="#999999" stroke-linecap="round" stroke-linejoin="round" stroke-width="0.1"/>
    <path d="M56.5 -377.75 L56.45 -377.8 56.45 -377.9 56.55 -377.95 56.65 -377.95 58.85 -376.65 58.9 -376.55 58.85 -376.45 58.8 -376.4 58.7 -376.45 56.5 -377.75 M56.9 -378.6 L56.9 -378.7 57.0 -378.75 57.1 -378.75 59.3 -377.45 59.35 -377.35 59.3 -377.25 59.25 -377.2 Q59.15 -377.2 59.15 -377.25 L56.95 -378.55 56.9 -378.6 M57.5 -379.55 L57.6 -379.55 59.8 -378.25 59.85 -378.15 59.8 -378.05 59.75 -378.0 Q59.65 -378.0 59.65 -378.05 L57.45 -379.35 57.4 -379.4 57.4 -379.5 57.5 -379.55 M57.9 -380.15 L57.85 -380.2 57.85 -380.3 57.95 -380.35 58.05 -380.35 60.25 -379.05 60.3 -378.95 60.25 -378.85 60.2 -378.8 60.1 -378.85 57.9 -380.15 M58.4 -381.15 L58.5 -381.15 60.7 -379.85 60.75 -379.75 60.7 -379.65 60.65 -379.6 Q60.55 -379.6 60.55 -379.65 L58.35 -380.95 58.3 -381.0 58.3 -381.1 58.4 -381.15 M61.15 -380.4 L61.1 -380.35 61.0 -380.4 58.8 -381.7 58.75 -381.75 58.75 -381.85 58.85 -381.9 58.95 -381.9 61.15 -380.6 61.2 -380.5 61.15 -380.4 M61.6 -381.4 L61.65 -381.3 61.6 -381.2 61.55 -381.15 Q61.45 -381.15 61.45 -381.2 L59.25 -382.5 59.2 -382.55 59.2 -382.65 59.3 -382.7 59.4 -382.7 61.6 -381.4 M62.05 -382.2 L62.1 -382.1 62.05 -382.0 62.0 -381.95 61.9 -382.0 59.7 -383.3 59.65 -383.35 59.65 -383.45 59.75 -383.5 59.85 -383.5 62.05 -382.2 M62.6 -382.9 L62.55 -382.8 62.5 -382.75 62.4 -382.8 60.2 -384.1 60.15 -384.15 60.15 -384.25 60.25 -384.3 60.35 -384.3 62.55 -383.0 62.6 -382.9 M63.0 -383.8 L63.05 -383.7 63.0 -383.6 62.95 -383.55 Q62.85 -383.55 62.85 -383.6 L60.65 -384.9 60.6 -384.95 60.6 -385.05 60.7 -385.1 60.8 -385.1 63.0 -383.8 M61.5 -386.65 L61.6 -386.7 61.7 -386.7 63.9 -385.4 63.95 -385.3 63.9 -385.2 63.85 -385.15 Q63.75 -385.15 63.75 -385.2 L61.55 -386.5 61.5 -386.55 61.5 -386.65 M61.1 -385.7 L61.05 -385.75 61.05 -385.85 61.15 -385.9 61.25 -385.9 63.45 -384.6 63.5 -384.5 63.45 -384.4 63.4 -384.35 63.3 -384.4 61.1 -385.7 M61.95 -387.35 L61.95 -387.45 62.05 -387.5 62.15 -387.5 64.35 -386.2 64.4 -386.1 64.35 -386.0 64.3 -385.95 64.2 -386.0 62.0 -387.3 61.95 -387.35 M64.8 -386.95 L64.85 -386.85 64.8 -386.75 64.75 -386.7 Q64.65 -386.7 64.65 -386.75 L62.45 -388.05 62.4 -388.1 62.4 -388.2 62.5 -388.25 62.6 -388.25 64.8 -386.95 M65.3 -387.75 L65.35 -387.65 65.3 -387.55 65.25 -387.5 Q65.15 -387.5 65.15 -387.55 L62.95 -388.85 62.9 -388.9 62.9 -389.0 63.0 -389.05 63.1 -389.05 65.3 -387.75 M63.45 -389.85 L63.55 -389.85 65.75 -388.55 65.8 -388.45 65.75 -388.35 65.7 -388.3 65.6 -388.35 63.4 -389.65 63.35 -389.7 63.35 -389.8 63.45 -389.85 M63.9 -390.65 L64.0 -390.65 66.2 -389.35 66.25 -389.25 66.2 -389.15 66.15 -389.1 Q66.05 -389.1 66.05 -389.15 L63.85 -390.45 63.8 -390.5 63.8 -390.6 63.9 -390.65 M67.05 -390.7 Q66.95 -390.7 66.95 -390.75 L64.75 -392.05 64.7 -392.1 64.7 -392.2 64.8 -392.25 64.9 -392.25 67.1 -390.95 67.15 -390.85 67.1 -390.75 67.05 -390.7 M66.65 -389.95 L66.6 -389.9 66.5 -389.95 64.3 -391.25 64.25 -391.3 64.25 -391.4 64.35 -391.45 64.45 -391.45 66.65 -390.15 66.7 -390.05 66.65 -389.95 M67.55 -391.75 L67.6 -391.65 67.55 -391.55 67.5 -391.5 67.4 -391.55 65.2 -392.85 65.15 -392.9 65.15 -393.0 65.25 -393.05 65.35 -393.05 67.55 -391.75 M68.05 -392.55 L68.1 -392.45 68.05 -392.35 68.0 -392.3 67.9 -392.35 65.7 -393.65 65.65 -393.7 65.65 -393.8 65.75 -393.85 65.85 -393.85 68.05 -392.55 M68.5 -393.3 L68.55 -393.2 68.5 -393.1 68.45 -393.05 Q68.35 -393.05 68.35 -393.1 L66.15 -394.4 66.1 -394.45 66.1 -394.55 66.2 -394.6 66.3 -394.6 68.5 -393.3 M68.95 -394.1 L69.0 -394.0 68.95 -393.9 68.9 -393.85 68.8 -393.9 66.6 -395.2 66.55 -395.25 66.55 -395.35 66.65 -395.4 66.75 -395.4 68.95 -394.1 M71.25 -403.35 L71.35 -403.35 73.55 -402.05 73.6 -401.95 73.55 -401.85 73.5 -401.8 73.4 -401.85 71.2 -403.15 71.15 -403.2 71.15 -403.3 71.25 -403.35 M71.6 -404.1 L71.7 -404.15 71.8 -404.15 74.0 -402.85 74.05 -402.75 74.0 -402.65 73.95 -402.6 Q73.85 -402.6 73.85 -402.65 L71.65 -403.95 71.6 -404.0 71.6 -404.1 M72.15 -404.95 L72.25 -404.95 74.45 -403.65 74.5 -403.55 74.45 -403.45 74.4 -403.4 74.3 -403.45 72.1 -404.75 72.05 -404.8 72.05 -404.9 72.15 -404.95 M73.0 -406.35 L72.95 -406.4 72.95 -406.5 73.05 -406.55 73.15 -406.55 75.35 -405.25 75.4 -405.15 75.35 -405.05 75.3 -405.0 75.2 -405.05 73.0 -406.35 M72.6 -405.75 L72.7 -405.75 74.9 -404.45 74.95 -404.35 74.9 -404.25 74.85 -404.2 Q74.75 -404.2 74.75 -404.25 L72.55 -405.55 72.5 -405.6 72.5 -405.7 72.6 -405.75 M73.5 -407.35 L73.6 -407.35 75.8 -406.05 75.85 -405.95 75.8 -405.85 75.75 -405.8 Q75.65 -405.8 75.65 -405.85 L73.45 -407.15 73.4 -407.2 73.4 -407.3 73.5 -407.35 M76.25 -406.55 Q76.15 -406.55 76.15 -406.6 L73.95 -407.9 73.9 -407.95 73.9 -408.05 74.0 -408.1 74.1 -408.1 76.3 -406.8 76.35 -406.7 76.3 -406.6 76.25 -406.55 M68.5 -398.6 L68.6 -398.6 70.8 -397.3 70.85 -397.2 70.8 -397.1 70.75 -397.05 Q70.65 -397.05 70.65 -397.1 L68.45 -398.4 68.4 -398.45 68.4 -398.55 68.5 -398.6 M67.55 -397.0 L67.65 -397.0 69.85 -395.7 69.9 -395.6 69.85 -395.5 69.8 -395.45 69.7 -395.5 67.5 -396.8 67.45 -396.85 67.45 -396.95 67.55 -397.0 M67.0 -396.05 L67.0 -396.15 67.1 -396.2 67.2 -396.2 69.4 -394.9 69.45 -394.8 69.4 -394.7 69.35 -394.65 Q69.25 -394.65 69.25 -394.7 L67.05 -396.0 67.0 -396.05 M68.0 -397.8 L68.1 -397.8 70.3 -396.5 70.35 -396.4 70.3 -396.3 70.25 -396.25 Q70.15 -396.25 70.15 -396.3 L67.95 -397.6 67.9 -397.65 67.9 -397.75 68.0 -397.8 M68.9 -399.2 L68.85 -399.25 68.85 -399.35 68.95 -399.4 69.05 -399.4 71.25 -398.1 71.3 -398.0 71.25 -397.9 71.2 -397.85 71.1 -397.9 68.9 -399.2 M69.3 -400.15 L69.4 -400.2 69.5 -400.2 71.7 -398.9 71.75 -398.8 71.7 -398.7 71.65 -398.65 Q71.55 -398.65 71.55 -398.7 L69.35 -400.0 69.3 -400.05 69.3 -400.15 M70.2 -401.6 L70.2 -401.7 70.3 -401.75 70.4 -401.75 72.6 -400.45 72.65 -400.35 72.6 -400.25 72.55 -400.2 Q72.45 -400.2 72.45 -400.25 L70.25 -401.55 70.2 -401.6 M69.85 -400.95 L69.95 -400.95 72.15 -399.65 72.2 -399.55 72.15 -399.45 72.1 -399.4 72.0 -399.45 69.8 -400.75 69.75 -400.8 69.75 -400.9 69.85 -400.95 M70.7 -402.35 L70.65 -402.4 70.65 -402.5 70.75 -402.55 70.85 -402.55 73.05 -401.25 73.1 -401.15 73.05 -401.05 73.0 -401.0 72.9 -401.05 70.7 -402.35 M76.2 -411.9 L76.15 -411.95 76.15 -412.05 76.25 -412.1 76.35 -412.1 78.55 -410.8 78.6 -410.7 78.55 -410.6 78.5 -410.55 78.4 -410.6 76.2 -411.9 M79.55 -412.3 L79.5 -412.2 79.45 -412.15 Q79.35 -412.15 79.35 -412.2 L77.15 -413.5 77.1 -413.55 77.1 -413.65 77.2 -413.7 77.3 -413.7 79.5 -412.4 79.55 -412.3 M79.05 -411.6 L79.1 -411.5 79.05 -411.4 79.0 -411.35 78.9 -411.4 76.7 -412.7 76.65 -412.75 76.65 -412.85 76.75 -412.9 76.85 -412.9 79.05 -411.6 M79.95 -413.15 L80.0 -413.05 79.95 -412.95 79.9 -412.9 79.8 -412.95 77.6 -414.25 77.55 -414.3 77.55 -414.4 77.65 -414.45 77.75 -414.45 79.95 -413.15 M74.85 -409.5 L74.8 -409.55 74.8 -409.65 74.9 -409.7 75.0 -409.7 77.2 -408.4 77.25 -408.3 77.2 -408.2 77.15 -408.15 Q77.05 -408.15 77.05 -408.2 L74.85 -409.5 M74.45 -408.9 L74.55 -408.9 76.75 -407.6 76.8 -407.5 76.75 -407.4 76.7 -407.35 76.6 -407.4 74.4 -408.7 74.35 -408.75 74.35 -408.85 74.45 -408.9 M75.75 -411.1 L75.7 -411.15 75.7 -411.25 75.8 -411.3 75.9 -411.3 78.1 -410.0 78.15 -409.9 78.1 -409.8 78.05 -409.75 Q77.95 -409.75 77.95 -409.8 L75.75 -411.1 M75.3 -410.3 L75.25 -410.35 75.25 -410.45 75.35 -410.5 75.45 -410.5 77.65 -409.2 77.7 -409.1 77.65 -409.0 77.6 -408.95 77.5 -409.0 75.3 -410.3 M78.05 -415.05 L78.0 -415.1 78.0 -415.2 78.1 -415.25 78.2 -415.25 80.4 -413.95 80.45 -413.85 80.4 -413.75 80.35 -413.7 Q80.25 -413.7 80.25 -413.75 L78.05 -415.05" fill="#ffffff" fill-rule="evenodd" stroke="none"/>
  </g>
</svg>
