<?xml version="1.0" encoding="UTF-8" standalone="no"?>
<svg xmlns:xlink="http://www.w3.org/1999/xlink" height="24.15px" width="47.35px" xmlns="http://www.w3.org/2000/svg">
  <g transform="matrix(1.0, 0.0, 0.0, 1.0, 188.55, 396.25)">
    <path d="M-141.85 -390.3 Q-140.8 -386.3 -146.85 -381.65 -152.75 -376.95 -162.25 -374.4 -171.8 -371.85 -179.35 -372.95 -186.85 -373.95 -187.9 -377.95 -189.0 -382.0 -183.05 -386.75 -177.05 -391.4 -167.5 -393.95 -158.0 -396.5 -150.55 -395.45 -142.95 -394.35 -141.85 -390.3" fill="url(#gradient0)" fill-rule="evenodd" stroke="none"/>
    <path d="M-141.85 -390.3 Q-140.8 -386.3 -146.85 -381.65 -152.75 -376.95 -162.25 -374.4 -171.8 -371.85 -179.35 -372.95 -186.85 -373.95 -187.9 -377.95 -189.0 -382.0 -183.05 -386.75 -177.05 -391.4 -167.5 -393.95 -158.0 -396.5 -150.55 -395.45 -142.95 -394.35 -141.85 -390.3 Z" fill="none" stroke="url(#gradient1)" stroke-linecap="round" stroke-linejoin="round" stroke-width="1.0"/>
  </g>
  <defs>
    <linearGradient gradientTransform="matrix(0.0281, -0.0075, 0.0032, 0.0119, -164.85, -384.15)" gradientUnits="userSpaceOnUse" id="gradient0" spreadMethod="pad" x1="-819.2" x2="819.2">
      <stop offset="0.0" stop-color="#cccccc"/>
      <stop offset="0.6509803921568628" stop-color="#ffffff"/>
      <stop offset="1.0" stop-color="#cccccc"/>
    </linearGradient>
    <linearGradient gradientTransform="matrix(0.0289, -0.0077, 0.0034, 0.0127, -164.85, -384.15)" gradientUnits="userSpaceOnUse" id="gradient1" spreadMethod="pad" x1="-819.2" x2="819.2">
      <stop offset="0.0" stop-color="#999999"/>
      <stop offset="1.0" stop-color="#e9ffff"/>
    </linearGradient>
  </defs>
</svg>
