<?xml version="1.0" encoding="UTF-8" standalone="no"?>
<svg xmlns:xlink="http://www.w3.org/1999/xlink" height="78.75px" width="147.7px" xmlns="http://www.w3.org/2000/svg">
  <g transform="matrix(1.0, 0.0, 0.0, 1.0, 73.8, 39.35)">
    <path d="M23.95 -38.7 L43.1 -38.85 61.3 -38.55 Q65.1 -38.2 67.05 -37.05 69.0 -35.9 69.0 -35.75 L70.4 14.65 72.05 15.15 Q73.45 15.65 73.65 16.5 72.85 17.55 67.0 19.3 L60.3 21.3 0.1 24.9 -57.9 27.55 -62.1 25.65 -69.8 22.0 Q-73.65 20.05 -73.8 19.55 -73.45 19.0 -72.3 18.95 L-71.0 18.85 -72.75 -33.05 -68.8 -34.2 -59.1 -36.45 -44.25 -37.6 -24.7 -38.3 -15.0 -38.55 15.1 -38.55 23.95 -38.7" fill="#ff5800" fill-rule="evenodd" stroke="none"/>
    <path d="M38.0 -34.85 L33.65 -36.75 30.2 -34.3 29.75 21.65 28.15 21.8 27.0 -35.9 22.8 -36.75 19.2 -35.15 19.35 21.95 17.5 22.25 15.9 -35.0 14.9 -36.3 9.55 -36.15 7.25 -34.75 7.8 22.55 5.8 22.55 4.35 -34.6 1.75 -35.9 -2.75 -35.9 -4.9 -33.85 -3.6 22.1 -6.2 22.4 -7.5 -34.6 -9.8 -35.6 -13.85 -35.6 -16.9 -33.7 -15.9 22.95 -17.75 22.8 -19.2 -34.45 -24.1 -34.85 -27.3 -34.0 -27.3 22.95 -28.75 23.1 -31.05 -34.15 -35.35 -34.6 -37.95 -33.7 -37.7 22.8 -39.85 22.95 -40.55 -33.7 -43.6 -34.0 -47.65 -33.45 -47.05 22.8 -48.2 22.7 -50.1 -33.55 -52.85 -34.6 -55.6 -33.3 -55.3 22.8 -56.45 22.8 -58.9 -34.15 -60.95 -34.6 -62.5 -33.3 -61.8 22.95 -63.15 22.85 -64.7 -32.9 -68.15 -33.15 -66.7 21.95 -67.45 21.95 -69.6 -32.4 -71.7 -32.9 -61.8 -36.05 -46.05 -37.9 45.65 -39.35 63.25 -38.65 67.45 -36.6 66.85 -35.3 67.6 18.65 66.15 18.8 64.1 -37.45 61.65 -37.75 62.4 -35.75 63.25 19.2 61.65 18.9 60.1 -35.9 56.6 -37.6 56.75 19.95 55.75 19.8 54.3 -35.6 52.15 -36.6 49.4 -35.3 49.1 20.35 47.65 20.5 45.65 -36.3 42.6 -36.6 41.15 -34.75 40.15 21.1 38.7 21.1 38.0 -34.85" fill="#ff8600" fill-rule="evenodd" stroke="none"/>
    <path d="M73.2 16.1 L73.9 16.1 73.2 32.9 65.05 34.5 Q56.3 36.0 30.2 37.5 L2.65 38.9 -14.85 39.4 -29.7 39.2 -65.8 37.05 -73.8 35.7 -73.8 19.6 -72.2 20.35 -67.65 20.55 -60.5 21.0 -52.3 21.35 -43.0 21.7 Q-36.25 22.2 -23.75 22.2 -11.25 22.2 1.8 21.7 L26.45 20.65 45.9 19.6 63.2 17.6 73.2 16.1" fill="#ff7400" fill-rule="evenodd" stroke="none"/>
  </g>
</svg>
