<?xml version="1.0" encoding="UTF-8" standalone="no"?>
<svg xmlns:xlink="http://www.w3.org/1999/xlink" height="297.35px" width="63.8px" xmlns="http://www.w3.org/2000/svg">
  <g transform="matrix(1.0, 0.0, 0.0, 1.0, 0.5, 0.0)">
    <path d="M35.6 296.85 L4.1 296.85" fill="none" stroke="#868a8b" stroke-linecap="butt" stroke-linejoin="miter" stroke-miterlimit="10.0" stroke-width="1.0"/>
    <path d="M20.65 94.2 L1.1 94.55" fill="none" stroke="#868a8b" stroke-linecap="butt" stroke-linejoin="miter" stroke-miterlimit="10.0" stroke-width="1.0"/>
    <path d="M0.75 1.05 L4.3 296.45" fill="none" stroke="#868a8b" stroke-linecap="butt" stroke-linejoin="miter" stroke-miterlimit="10.0" stroke-width="1.0"/>
    <path d="M32.25 0.5 L0.0 1.05" fill="none" stroke="#868a8b" stroke-linecap="butt" stroke-linejoin="miter" stroke-miterlimit="10.0" stroke-width="1.0"/>
    <path d="M19.8 21.55 L0.25 21.9" fill="none" stroke="#868a8b" stroke-linecap="butt" stroke-linejoin="miter" stroke-miterlimit="10.0" stroke-width="1.0"/>
    <path d="M20.05 43.25 L0.5 43.6" fill="none" stroke="#868a8b" stroke-linecap="butt" stroke-linejoin="miter" stroke-miterlimit="10.0" stroke-width="1.0"/>
    <path d="M20.3 66.85 L0.8 67.2" fill="none" stroke="#868a8b" stroke-linecap="butt" stroke-linejoin="miter" stroke-miterlimit="10.0" stroke-width="1.0"/>
    <path d="M21.0 121.55 L1.45 121.9" fill="none" stroke="#868a8b" stroke-linecap="butt" stroke-linejoin="miter" stroke-miterlimit="10.0" stroke-width="1.0"/>
    <path d="M21.3 148.9 L1.75 149.25" fill="none" stroke="#868a8b" stroke-linecap="butt" stroke-linejoin="miter" stroke-miterlimit="10.0" stroke-width="1.0"/>
    <path d="M21.65 176.3 L2.1 176.6" fill="none" stroke="#868a8b" stroke-linecap="butt" stroke-linejoin="miter" stroke-miterlimit="10.0" stroke-width="1.0"/>
    <path d="M22.3 230.05 L2.75 230.4" fill="none" stroke="#868a8b" stroke-linecap="butt" stroke-linejoin="miter" stroke-miterlimit="10.0" stroke-width="1.0"/>
    <path d="M22.55 252.7 L3.0 253.05" fill="none" stroke="#868a8b" stroke-linecap="butt" stroke-linejoin="miter" stroke-miterlimit="10.0" stroke-width="1.0"/>
    <path d="M22.85 275.35 L3.3 275.7" fill="none" stroke="#868a8b" stroke-linecap="butt" stroke-linejoin="miter" stroke-miterlimit="10.0" stroke-width="1.0"/>
    <path d="M21.95 202.7 L2.4 203.05" fill="none" stroke="#868a8b" stroke-linecap="butt" stroke-linejoin="miter" stroke-miterlimit="10.0" stroke-width="1.0"/>
    <path d="M36.6 18.15 L35.8 18.95 Q36.55 19.15 36.9 19.75 37.3 20.4 37.3 21.25 37.3 22.6 36.6 23.35 35.85 24.25 34.7 24.25 33.7 24.3 33.0 23.55 32.25 22.75 32.2 21.65 L33.15 21.45 Q33.3 22.45 33.75 22.9 34.15 23.3 34.7 23.3 35.4 23.3 35.85 22.7 36.3 22.2 36.3 21.3 36.3 20.55 35.85 20.0 35.4 19.5 34.75 19.5 L34.05 19.65 34.15 18.6 34.3 18.6 Q35.0 18.6 35.4 18.2 35.9 17.85 35.9 17.0 35.9 16.45 35.5 15.95 35.1 15.55 34.6 15.55 34.05 15.55 33.65 16.0 33.25 16.45 33.2 17.3 L32.25 17.1 Q32.4 15.95 33.0 15.25 33.65 14.6 34.55 14.6 L35.75 14.9 Q36.35 15.35 36.55 15.8 L36.9 17.0 36.6 18.15" fill="#4c4c4d" fill-rule="evenodd" stroke="none"/>
    <path d="M40.75 15.45 Q40.1 15.45 39.7 16.15 39.2 17.05 39.25 19.35 39.25 21.7 39.7 22.45 40.15 23.2 40.85 23.2 41.45 23.2 41.95 22.4 42.45 21.6 42.35 19.3 42.35 16.9 41.85 16.2 41.4 15.45 40.75 15.45 M42.65 15.65 L43.15 17.05 43.35 19.3 43.1 21.95 42.25 23.55 Q41.75 24.15 40.85 24.15 39.7 24.15 39.05 23.2 38.25 21.9 38.25 19.35 38.25 17.55 38.5 16.65 38.75 15.7 39.3 15.1 39.9 14.5 40.75 14.5 41.4 14.5 41.85 14.8 L42.65 15.65" fill="#4c4c4d" fill-rule="evenodd" stroke="none"/>
    <path d="M49.25 16.95 L49.45 19.2 49.2 21.85 Q48.9 23.0 48.35 23.45 47.85 24.05 46.95 24.05 45.8 24.05 45.15 23.1 44.35 21.95 44.35 19.25 44.3 17.7 44.6 16.55 44.8 15.6 45.4 14.95 46.05 14.4 46.8 14.4 47.45 14.4 47.95 14.7 L48.75 15.55 49.25 16.95 M46.8 15.35 Q46.2 15.35 45.75 16.05 45.3 16.95 45.3 19.25 45.4 21.65 45.8 22.35 46.25 23.1 46.95 23.1 47.55 23.1 48.05 22.3 48.45 21.65 48.45 19.2 48.45 16.95 47.95 16.1 47.5 15.35 46.8 15.35" fill="#4c4c4d" fill-rule="evenodd" stroke="none"/>
    <path d="M56.4 17.7 Q55.75 17.8 55.4 18.2 55.0 18.75 55.0 19.75 L55.05 23.75 54.1 23.75 54.05 19.3 53.8 18.15 Q53.55 17.75 53.05 17.8 52.55 17.8 52.3 18.05 52.0 18.25 51.8 18.8 51.65 19.35 51.65 20.25 L51.7 23.8 50.75 23.8 50.65 16.95 51.5 16.95 51.5 17.9 52.25 17.1 Q52.7 16.75 53.25 16.75 L54.25 17.05 54.85 17.95 Q55.55 16.7 56.6 16.7 57.45 16.7 57.9 17.25 58.35 17.8 58.35 19.0 L58.4 23.7 57.45 23.7 57.4 19.4 57.3 18.4 56.95 17.9 56.4 17.7" fill="#4c4c4d" fill-rule="evenodd" stroke="none"/>
    <path d="M59.85 23.65 L59.7 14.2 60.7 14.2 60.8 23.65 59.85 23.65" fill="#4c4c4d" fill-rule="evenodd" stroke="none"/>
    <path d="M35.45 67.8 L34.35 68.8 33.95 69.3 37.8 69.25 37.8 70.15 32.65 70.25 32.75 69.6 33.35 68.55 34.6 67.35 36.3 65.65 36.75 64.5 Q36.75 63.95 36.35 63.55 35.95 63.2 35.25 63.2 34.65 63.2 34.15 63.6 33.75 64.1 33.75 64.75 L32.75 64.7 Q32.8 63.6 33.5 63.0 34.2 62.4 35.25 62.4 36.4 62.4 37.05 63.0 37.75 63.6 37.75 64.5 L37.55 65.45 36.95 66.4 35.45 67.8" fill="#4c4c4d" fill-rule="evenodd" stroke="none"/>
    <path d="M38.85 68.1 L39.85 68.0 Q39.9 68.65 40.35 69.1 L41.35 69.45 Q42.0 69.45 42.55 68.9 43.0 68.4 43.0 67.5 43.0 66.7 42.5 66.25 42.05 65.8 41.3 65.8 L40.45 66.0 39.9 66.55 39.0 66.45 39.7 62.45 43.6 62.4 43.6 63.3 40.45 63.35 40.05 65.45 Q40.75 64.95 41.55 64.95 42.6 64.95 43.3 65.6 44.0 66.4 44.0 67.4 44.0 68.5 43.4 69.25 42.7 70.2 41.35 70.25 40.3 70.25 39.6 69.65 38.95 69.15 38.85 68.1" fill="#4c4c4d" fill-rule="evenodd" stroke="none"/>
    <path d="M49.3 63.15 L49.8 64.3 50.0 66.1 49.75 68.35 48.9 69.65 Q48.4 70.05 47.5 70.15 46.35 70.15 45.7 69.35 44.9 68.3 44.9 66.2 44.9 64.7 45.15 64.0 45.45 63.05 46.0 62.65 46.55 62.2 47.4 62.2 L48.5 62.4 Q49.1 62.8 49.3 63.15 M46.35 63.55 Q45.85 64.3 45.9 66.2 45.9 68.1 46.35 68.75 46.8 69.35 47.5 69.35 L48.6 68.7 Q49.0 68.1 49.0 66.15 49.0 64.2 48.55 63.6 48.05 62.95 47.4 62.95 46.7 63.05 46.35 63.55" fill="#4c4c4d" fill-rule="evenodd" stroke="none"/>
    <path d="M55.95 65.3 Q55.6 65.65 55.6 66.6 L55.6 69.85 54.65 69.85 54.6 66.2 54.35 65.25 Q54.15 64.95 53.6 64.95 L52.85 65.2 52.35 65.8 Q52.2 66.25 52.2 67.0 L52.25 69.9 51.3 69.95 51.2 64.3 52.1 64.3 52.1 65.05 Q52.35 64.6 52.8 64.4 53.25 64.1 53.8 64.1 L54.85 64.35 55.4 65.1 Q56.1 64.05 57.15 64.05 58.0 64.05 58.45 64.5 58.85 64.9 58.95 65.9 L59.0 69.8 58.0 69.8 58.0 66.25 57.9 65.45 57.55 65.05 56.95 64.9 Q56.35 64.9 55.95 65.3" fill="#4c4c4d" fill-rule="evenodd" stroke="none"/>
    <path d="M60.4 69.75 L60.3 62.0 61.25 61.95 61.35 69.75 60.4 69.75" fill="#4c4c4d" fill-rule="evenodd" stroke="none"/>
    <path d="M37.7 116.25 Q38.4 117.05 38.4 118.15 L38.2 119.25 37.6 120.4 36.1 122.1 35.0 123.3 34.6 123.95 38.45 123.9 38.5 125.0 33.3 125.1 33.4 124.3 34.0 123.0 35.25 121.55 36.95 119.55 37.4 118.1 36.95 116.95 Q36.6 116.5 35.9 116.5 35.2 116.5 34.8 117.05 34.4 117.45 34.4 118.45 L33.4 118.35 Q33.5 117.0 34.15 116.3 34.85 115.55 35.9 115.55 37.0 115.55 37.7 116.25" fill="#4c4c4d" fill-rule="evenodd" stroke="none"/>
    <path d="M41.95 116.4 Q41.3 116.4 40.9 117.1 40.4 118.15 40.45 120.3 40.45 122.7 40.95 123.4 41.4 124.15 42.05 124.15 42.65 124.15 43.15 123.35 43.65 122.55 43.55 120.25 43.55 117.9 43.1 117.15 42.65 116.4 41.95 116.4 M43.05 115.75 L43.85 116.6 44.35 118.0 44.55 120.25 44.3 122.9 Q44.1 123.9 43.5 124.5 42.9 125.1 42.05 125.1 40.9 125.1 40.25 124.15 39.45 122.85 39.45 120.3 39.45 118.5 39.7 117.6 40.05 116.5 40.55 116.05 41.1 115.45 41.95 115.45 42.6 115.45 43.05 115.75" fill="#4c4c4d" fill-rule="evenodd" stroke="none"/>
    <path d="M49.95 116.5 L50.45 117.9 50.65 120.1 50.4 122.8 Q50.1 123.95 49.55 124.4 49.05 125.0 48.15 125.0 47.0 125.0 46.35 124.05 45.55 122.75 45.55 120.2 45.55 118.4 45.8 117.5 46.0 116.6 46.6 115.9 47.25 115.35 48.05 115.35 48.7 115.35 49.15 115.65 49.65 115.9 49.95 116.5 M48.05 116.3 Q47.4 116.3 47.0 117.0 46.5 117.9 46.55 120.2 46.55 122.55 47.0 123.3 47.45 124.05 48.15 124.05 48.75 124.05 49.25 123.25 49.7 122.4 49.65 120.15 49.65 117.75 49.15 117.05 48.7 116.3 48.05 116.3" fill="#4c4c4d" fill-rule="evenodd" stroke="none"/>
    <path d="M55.5 118.0 L56.05 118.9 Q56.75 117.65 57.8 117.65 58.65 117.65 59.1 118.2 59.5 118.7 59.6 119.95 L59.65 124.65 58.7 124.65 58.65 120.35 58.5 119.35 58.2 118.85 57.6 118.65 Q57.0 118.65 56.6 119.15 56.25 119.65 56.25 120.7 L56.3 124.7 55.3 124.7 55.25 120.25 55.0 119.1 Q54.75 118.7 54.25 118.75 53.75 118.75 53.5 119.0 53.2 119.2 53.0 119.75 52.85 120.3 52.85 121.2 L52.9 124.75 51.95 124.75 51.85 117.9 52.75 117.9 52.75 118.85 Q52.95 118.4 53.45 118.05 54.0 117.7 54.45 117.7 55.05 117.7 55.5 118.0" fill="#4c4c4d" fill-rule="evenodd" stroke="none"/>
    <path d="M61.05 124.6 L60.95 115.15 61.9 115.15 62.0 124.6 61.05 124.6" fill="#4c4c4d" fill-rule="evenodd" stroke="none"/>
    <path d="M34.7 171.25 L36.1 170.1 36.95 168.8 37.55 168.8 37.7 178.3 36.7 178.3 36.65 170.9 35.75 171.75 34.75 172.35 34.7 171.25" fill="#4c4c4d" fill-rule="evenodd" stroke="none"/>
    <path d="M44.55 172.75 Q45.3 173.65 45.3 174.95 45.3 176.25 44.7 177.2 43.95 178.35 42.65 178.35 41.6 178.4 40.9 177.7 40.25 177.0 40.1 175.8 L41.15 175.65 Q41.2 176.5 41.65 177.0 42.05 177.4 42.65 177.4 43.35 177.4 43.85 176.75 44.3 176.15 44.3 175.1 44.3 174.15 43.8 173.5 43.35 172.95 42.6 172.95 42.15 172.95 41.75 173.25 L41.15 173.9 40.25 173.8 40.95 168.9 44.85 168.85 44.9 169.95 41.75 170.0 41.35 172.55 Q42.05 171.95 42.85 171.95 43.85 171.9 44.55 172.75" fill="#4c4c4d" fill-rule="evenodd" stroke="none"/>
    <path d="M51.1 171.15 L51.3 173.4 51.05 176.1 Q50.7 177.2 50.2 177.7 49.65 178.25 48.8 178.25 47.65 178.25 47.0 177.3 46.2 176.2 46.2 173.5 46.15 171.85 46.45 170.8 46.65 169.8 47.25 169.2 47.85 168.6 48.7 168.6 L49.8 168.9 50.6 169.75 51.1 171.15 M48.7 169.55 Q48.0 169.65 47.65 170.25 47.15 171.1 47.15 173.45 47.25 175.85 47.65 176.55 48.1 177.3 48.8 177.3 49.45 177.3 49.9 176.5 50.3 175.85 50.3 173.4 50.3 171.15 49.8 170.3 49.35 169.55 48.7 169.55" fill="#4c4c4d" fill-rule="evenodd" stroke="none"/>
    <path d="M53.65 173.05 Q53.5 173.5 53.5 174.45 L53.55 178.0 52.6 178.05 52.5 171.2 53.35 171.15 53.4 172.15 54.1 171.3 Q54.5 171.0 55.1 171.0 55.75 171.0 56.1 171.3 L56.7 172.15 Q57.4 170.95 58.45 170.95 59.25 170.9 59.75 171.45 60.2 172.05 60.2 173.2 L60.3 177.9 59.3 177.9 59.25 173.6 59.15 172.6 58.8 172.1 58.25 171.95 Q57.6 171.95 57.25 172.45 56.85 172.95 56.9 174.0 L56.9 177.95 55.95 177.95 55.9 173.55 55.65 172.35 Q55.45 172.0 54.9 172.0 54.5 172.0 54.15 172.25 L53.65 173.05" fill="#4c4c4d" fill-rule="evenodd" stroke="none"/>
    <path d="M61.7 177.85 L61.55 168.4 62.55 168.4 62.65 177.85 61.7 177.85" fill="#4c4c4d" fill-rule="evenodd" stroke="none"/>
    <path d="M38.2 222.6 L38.35 232.05 37.35 232.1 37.3 224.7 36.4 225.5 35.4 226.1 35.35 225.0 36.75 223.85 37.6 222.6 38.2 222.6" fill="#4c4c4d" fill-rule="evenodd" stroke="none"/>
    <path d="M45.85 227.3 L45.6 229.95 Q45.3 231.1 44.75 231.55 44.25 232.15 43.35 232.15 42.2 232.15 41.55 231.2 40.75 229.9 40.75 227.35 40.75 225.55 41.0 224.65 41.35 223.6 41.8 223.05 42.45 222.5 43.25 222.5 L44.35 222.8 45.15 223.65 45.65 225.05 45.85 227.3 M44.35 224.2 Q43.9 223.45 43.25 223.45 42.6 223.45 42.2 224.15 41.7 225.05 41.75 227.35 41.75 229.7 42.2 230.45 42.65 231.2 43.35 231.2 43.95 231.2 44.45 230.4 44.95 229.6 44.85 227.3 44.85 224.9 44.35 224.2" fill="#4c4c4d" fill-rule="evenodd" stroke="none"/>
    <path d="M50.45 222.65 L51.25 223.55 51.75 224.95 51.95 227.15 51.7 229.85 Q51.4 231.0 50.85 231.45 50.35 232.05 49.45 232.05 48.3 232.05 47.65 231.1 46.85 229.95 46.85 227.25 46.8 225.7 47.1 224.55 47.3 223.65 47.9 222.95 48.55 222.4 49.3 222.4 L50.45 222.65 M49.3 223.35 Q48.7 223.35 48.25 224.05 47.8 224.9 47.8 227.25 47.9 229.55 48.3 230.35 48.75 231.1 49.45 231.1 50.05 231.1 50.55 230.3 50.95 229.55 50.95 227.2 50.95 224.95 50.45 224.1 50.0 223.35 49.3 223.35" fill="#4c4c4d" fill-rule="evenodd" stroke="none"/>
    <path d="M60.4 225.25 Q60.85 225.8 60.85 226.95 L60.9 231.7 59.95 231.7 59.9 227.4 59.8 226.4 59.45 225.9 58.9 225.7 Q58.3 225.7 57.9 226.2 57.5 226.75 57.5 227.75 L57.55 231.75 56.6 231.75 56.55 227.3 56.3 226.15 Q56.05 225.75 55.55 225.75 L54.8 226.05 Q54.45 226.25 54.3 226.8 54.15 227.35 54.15 228.25 L54.2 231.8 53.25 231.8 53.15 224.95 54.0 224.95 54.0 225.9 54.75 225.1 Q55.2 224.75 55.75 224.75 56.4 224.75 56.75 225.05 57.2 225.35 57.35 225.95 58.0 224.7 59.1 224.7 60.0 224.7 60.4 225.25" fill="#4c4c4d" fill-rule="evenodd" stroke="none"/>
    <path d="M62.35 231.65 L62.2 222.2 63.2 222.2 63.3 231.65 62.35 231.65" fill="#4c4c4d" fill-rule="evenodd" stroke="none"/>
    <path d="M39.95 265.15 L39.95 266.25 36.8 266.3 36.45 268.85 Q37.15 268.25 37.9 268.25 38.9 268.25 39.65 269.05 40.35 270.0 40.35 271.25 40.4 272.5 39.8 273.5 39.05 274.65 37.75 274.7 36.7 274.7 36.0 274.0 35.25 273.2 35.2 272.1 L36.2 271.95 Q36.35 272.9 36.75 273.3 37.15 273.75 37.75 273.75 38.5 273.65 38.9 273.05 39.35 272.45 39.35 271.4 39.35 270.35 38.85 269.85 38.4 269.25 37.65 269.3 L36.8 269.55 Q36.55 269.7 36.25 270.2 L35.35 270.1 36.05 265.2 39.95 265.15" fill="#4c4c4d" fill-rule="evenodd" stroke="none"/>
    <path d="M44.85 265.2 L45.65 266.1 46.15 267.45 46.35 269.7 46.1 272.4 Q45.9 273.3 45.3 274.0 44.65 274.55 43.85 274.55 42.75 274.6 42.05 273.6 41.25 272.4 41.25 269.8 41.25 268.0 41.5 267.1 41.8 266.05 42.35 265.5 42.8 265.0 43.75 264.9 44.4 264.9 44.85 265.2 M44.9 266.65 Q44.4 265.85 43.75 265.9 43.05 265.9 42.7 266.6 42.2 267.45 42.25 269.8 42.25 272.15 42.75 272.85 43.2 273.65 43.85 273.6 44.5 273.6 44.95 272.85 45.45 272.0 45.35 269.7 45.35 267.4 44.9 266.65" fill="#4c4c4d" fill-rule="evenodd" stroke="none"/>
    <path d="M48.6 270.8 L48.6 274.35 47.65 274.35 47.6 267.5 48.45 267.5 48.45 268.45 Q48.65 268.05 49.15 267.6 49.6 267.3 50.15 267.3 L51.2 267.6 51.75 268.45 Q52.45 267.25 53.5 267.25 54.4 267.25 54.8 267.8 55.3 268.4 55.3 269.5 L55.35 274.2 54.4 274.25 54.35 269.9 54.25 268.9 53.9 268.45 53.3 268.25 Q52.75 268.25 52.3 268.75 51.95 269.15 51.95 270.3 L52.0 274.25 51.05 274.3 51.0 269.85 50.75 268.7 Q50.45 268.3 49.95 268.3 49.6 268.3 49.2 268.6 L48.7 269.35 48.6 270.8" fill="#4c4c4d" fill-rule="evenodd" stroke="none"/>
    <path d="M56.75 274.2 L56.65 264.75 57.6 264.7 57.7 274.15 56.75 274.2" fill="#4c4c4d" fill-rule="evenodd" stroke="none"/>
  </g>
</svg>
