<?xml version="1.0" encoding="UTF-8" standalone="no"?>
<svg xmlns:xlink="http://www.w3.org/1999/xlink" height="85.9px" width="60.75px" xmlns="http://www.w3.org/2000/svg">
  <g transform="matrix(1.0, 0.0, 0.0, 1.0, 50.8, -3.45)">
    <path d="M9.2 3.7 Q11.8 5.45 5.2 15.8 -1.5 26.15 -10.4 38.9 -18.35 50.3 -21.3 59.6 L-23.15 63.6 -23.2 63.95 Q-24.0 70.4 -28.55 77.35 -33.15 84.2 -38.8 87.45 -44.5 90.65 -47.95 88.4 -51.45 86.05 -50.65 79.6 -49.85 73.1 -45.3 66.2 -40.7 59.3 -35.05 56.05 L-34.45 55.7 -32.4 54.8 -30.9 53.25 Q-22.6 47.2 -14.25 35.65 -5.45 23.45 0.55 12.7 6.55 1.95 9.2 3.7 M-31.3 60.65 Q-31.55 60.15 -31.95 59.75 L-32.3 59.5 Q-33.8 58.5 -36.2 59.5 L-36.4 59.6 Q-37.05 59.9 -37.75 60.35 L-38.15 60.6 Q-41.9 63.05 -45.1 67.95 -48.35 72.8 -49.15 77.2 -50.0 81.6 -47.9 83.0 -47.25 83.4 -46.4 83.45 L-45.35 84.65 Q-43.3 86.0 -39.55 83.6 -35.85 81.1 -32.6 76.25 -29.35 71.35 -28.55 66.95 L-28.55 66.75 -28.3 64.75 Q-28.35 62.5 -29.45 61.45 L-29.8 61.15 Q-30.45 60.7 -31.3 60.65" fill="#cad8db" fill-rule="evenodd" stroke="none"/>
    <path d="M-46.4 83.45 Q-47.25 83.4 -47.9 83.0 -50.0 81.6 -49.15 77.2 -48.35 72.8 -45.1 67.95 -41.9 63.05 -38.15 60.6 L-37.75 60.35 Q-37.05 59.9 -36.4 59.6 L-36.2 59.5 Q-33.8 58.5 -32.3 59.5 L-31.95 59.75 Q-31.55 60.15 -31.3 60.65 -32.35 60.6 -33.7 61.2 L-33.9 61.3 Q-34.55 61.55 -35.2 62.0 L-35.65 62.25 Q-39.35 64.7 -42.55 69.6 -45.85 74.45 -46.65 78.9 -47.25 81.85 -46.4 83.45" fill="#a9b9c5" fill-rule="evenodd" stroke="none"/>
    <path d="M-46.4 83.45 Q-47.25 81.85 -46.65 78.9 -45.85 74.45 -42.55 69.6 -39.35 64.7 -35.65 62.25 L-35.2 62.0 Q-34.55 61.55 -33.9 61.3 L-33.7 61.2 Q-32.35 60.6 -31.3 60.65 -30.45 60.7 -29.8 61.15 L-29.45 61.45 Q-28.35 62.5 -28.3 64.75 L-28.55 66.75 -28.55 66.95 Q-29.35 71.35 -32.6 76.25 -35.85 81.1 -39.55 83.6 -43.3 86.0 -45.35 84.65 L-46.4 83.45" fill="#869bac" fill-rule="evenodd" stroke="none"/>
    <path d="M-40.75 61.6 Q-40.25 61.0 -39.1 61.35 L-38.25 61.75 -37.95 62.0 -37.4 62.1 -36.45 62.5 -35.75 63.2 -34.25 63.1 -33.3 63.55 Q-31.15 65.5 -32.85 66.35 -31.1 67.9 -32.05 68.8 -31.6 69.85 -32.9 70.35 L-34.1 70.3 Q-33.75 71.25 -34.95 71.75 L-35.65 71.8 Q-35.45 72.4 -35.85 72.85 L-35.65 72.95 Q-33.3 75.1 -35.35 75.85 L-36.7 75.8 -36.95 76.2 Q-36.05 77.45 -37.4 78.05 -36.85 79.15 -38.2 79.7 -38.65 79.9 -39.2 79.7 -39.45 80.15 -40.15 80.4 L-40.55 80.5 Q-40.55 81.15 -41.45 81.55 L-42.1 81.65 Q-41.85 82.55 -43.05 83.05 -43.75 83.3 -44.6 82.75 L-46.05 81.45 Q-46.6 81.4 -47.2 81.05 -49.45 79.7 -48.45 78.35 L-47.75 77.85 Q-48.75 76.8 -47.9 75.85 -49.8 74.55 -48.8 73.3 L-48.3 73.0 Q-49.0 72.1 -48.3 71.3 -47.9 70.8 -47.2 70.85 -47.25 70.4 -46.9 70.0 L-46.85 70.0 -47.0 69.95 Q-49.7 68.8 -48.85 67.1 -48.45 66.15 -47.05 66.6 L-46.75 66.0 Q-46.25 65.4 -45.1 65.8 L-44.35 66.1 -44.25 65.6 Q-45.45 64.5 -44.6 63.5 -44.15 63.0 -43.4 63.15 -45.2 61.6 -43.8 60.65 -42.95 60.0 -41.55 60.85 L-40.75 61.6 M-35.6 65.55 L-35.45 65.6 -35.55 65.5 -35.6 65.55" fill="#fcfccd" fill-rule="evenodd" stroke="none"/>
  </g>
</svg>
