<?xml version="1.0" encoding="UTF-8" standalone="no"?>
<svg xmlns:xlink="http://www.w3.org/1999/xlink" height="553.65px" width="258.75px" xmlns="http://www.w3.org/2000/svg">
  <g transform="matrix(1.0, 0.0, 0.0, 1.0, 0.0, -72.95)">
    <path d="M220.35 544.45 Q226.9 546.0 234.3 549.6 237.3 551.0 240.05 551.95 L242.1 553.05 244.2 554.65 245.5 556.25 Q245.9 556.95 245.6 557.25 L244.8 557.5 244.75 557.5 243.0 557.4 240.25 556.25 240.2 556.25 Q231.85 552.15 224.35 549.65 223.2 549.3 221.8 548.3 220.35 547.25 219.45 546.2 218.55 545.1 218.65 544.6 218.7 544.05 219.8 544.35 L220.35 544.45 M205.6 543.45 Q206.7 544.55 206.9 545.3 207.1 546.05 206.3 546.0 L165.95 543.1 Q120.3 539.95 84.75 545.4 L56.1 549.85 Q49.15 550.9 45.85 553.9 45.6 554.15 45.25 554.2 42.8 554.55 42.1 555.95 L42.15 555.95 Q41.8 556.75 40.65 557.2 L40.6 557.2 Q39.0 557.65 37.75 558.45 L37.7 558.85 36.9 559.15 36.8 559.15 Q33.25 559.0 31.95 560.45 L32.0 560.45 31.6 561.1 31.6 561.2 31.25 561.65 29.65 562.2 29.6 562.2 Q29.4 562.25 29.3 562.4 L29.2 562.45 28.45 562.95 28.4 562.95 28.4 563.0 Q28.35 563.4 27.8 563.35 L23.85 563.0 22.8 562.65 Q21.5 562.45 18.9 560.0 L17.45 558.25 Q17.05 557.5 17.45 557.3 17.65 557.15 18.0 557.05 L17.95 557.05 Q21.5 556.1 24.1 554.5 27.8 552.3 32.55 550.75 L34.4 550.05 34.7 549.55 Q44.7 539.85 68.7 539.35 L68.75 539.35 74.2 539.05 Q86.1 538.1 95.2 535.4 L95.45 535.35 Q126.25 535.5 157.7 536.2 L164.85 536.4 Q181.95 537.1 200.7 540.4 201.6 540.55 203.05 541.45 L205.6 543.45" fill="#fff5f5" fill-opacity="0.4" fill-rule="evenodd" stroke="none"/>
    <path d="M242.0 525.55 L245.4 525.45 252.1 522.75 Q258.8 523.75 257.65 529.05 259.35 531.8 258.45 536.3 L257.75 539.6 257.95 541.75 Q257.1 542.9 257.05 544.65 256.9 548.3 257.25 551.85 257.4 553.4 256.95 554.9 255.45 559.8 254.7 564.85 254.15 568.85 251.7 572.15 244.5 582.05 237.6 592.25 L231.0 596.85 Q222.25 603.55 212.5 609.0 208.7 611.15 204.6 612.7 198.9 614.9 192.95 616.55 177.3 620.85 161.4 623.95 L159.0 624.25 Q156.0 624.4 154.2 625.45 L138.8 625.65 Q125.1 625.7 105.25 625.15 L98.05 623.6 Q70.9 617.05 47.15 602.7 L45.85 601.65 Q40.7 596.2 35.2 591.1 33.35 587.1 30.65 583.6 29.0 581.45 27.7 579.1 23.85 572.15 20.75 564.6 L19.25 556.95 Q18.7 550.6 17.15 544.45 16.8 542.95 16.95 541.5 L17.0 538.7 Q15.15 537.45 14.45 533.9 13.45 528.95 15.25 524.45 16.15 522.1 18.8 521.75 L19.65 521.65 Q23.95 523.25 27.3 526.4 L29.65 528.0 29.65 527.95 Q29.6 525.85 31.3 524.6 32.95 523.35 34.8 523.3 49.9 528.35 66.2 530.0 L78.85 530.7 Q81.95 530.75 82.85 533.7 L82.95 534.1 126.4 533.9 Q160.05 533.9 187.2 534.25 L198.2 534.45 Q200.75 532.45 204.0 531.6 214.9 528.85 226.4 529.3 L227.2 529.35 Q234.9 528.0 242.0 525.55" fill="#f5f0eb" fill-opacity="0.69411767" fill-rule="evenodd" stroke="none"/>
    <path d="M184.25 93.25 Q181.9 94.6 181.8 98.0 181.7 101.05 183.45 105.75 187.05 115.7 194.65 128.3 202.2 140.85 209.75 151.4 217.3 161.95 220.75 165.75 L232.1 178.85 Q238.6 186.65 243.85 193.7 249.1 200.8 250.05 203.85 251.05 207.7 250.85 209.45 L250.05 215.05 Q250.0 219.0 253.4 222.3 256.75 225.6 257.75 231.15 L257.65 516.9 257.05 556.65 Q256.0 562.55 252.15 569.9 L247.8 577.9 Q231.65 600.35 205.75 611.5 198.7 614.5 191.65 616.95 172.7 623.5 153.55 625.85 L138.8 626.55 Q124.6 627.0 103.8 624.1 89.5 622.1 75.4 616.95 68.9 614.6 62.45 611.55 41.95 601.9 28.7 582.0 L24.0 574.2 Q19.85 567.05 18.55 561.15 L10.0 484.95 0.6 255.15 Q-0.05 236.35 0.0 233.85 0.8 228.3 4.0 224.85 7.25 221.4 7.05 217.45 L6.05 211.9 Q5.8 210.15 6.6 206.25 7.45 203.15 12.4 195.9 17.35 188.6 23.55 180.55 29.8 172.5 34.35 167.05 39.0 161.45 48.55 145.8 58.1 130.15 64.15 115.15 69.3 102.5 65.95 98.0 L64.45 96.65 Q58.95 94.55 57.65 91.5 57.05 90.1 57.35 88.5 L57.6 87.7 Q59.7 82.8 76.25 75.85 L171.65 72.95 Q189.9 79.75 191.05 84.85 191.4 86.35 190.95 87.7 190.2 89.8 187.6 91.5 186.2 92.45 184.25 93.25" fill="#bdaec2" fill-opacity="0.4" fill-rule="evenodd" stroke="none"/>
    <path d="M220.75 165.75 Q258.2 193.85 257.75 245.6 L257.65 516.9 257.05 556.65 Q256.0 562.55 252.15 569.9 L247.8 577.9 Q231.65 600.35 205.75 611.5 198.7 614.5 191.65 616.95 172.7 623.5 153.55 625.85 L138.8 626.55 Q124.6 627.0 103.8 624.1 89.5 622.1 75.4 616.95 68.9 614.6 62.45 611.55 41.95 601.9 28.7 582.0 L24.0 574.2 Q19.85 567.05 18.55 561.15 L10.0 484.95 38.15 342.55 Q0.4 249.7 220.75 165.75" fill="#ffffff" fill-opacity="0.4" fill-rule="evenodd" stroke="none"/>
    <path d="M173.3 95.3 Q175.85 94.8 178.2 93.9 180.6 93.0 183.35 93.25 179.5 93.65 175.8 95.45 172.1 97.2 168.25 98.15 155.45 99.7 142.45 98.9 L75.5 99.5 Q68.95 99.5 64.8 97.4 L77.7 98.05 Q84.9 98.25 88.15 95.2 L120.2 96.75 153.75 95.75 Q156.8 95.7 159.2 94.95 L159.15 96.7 Q162.7 95.55 166.15 95.6 L173.3 95.3 M88.4 94.9 L88.65 94.6 90.45 94.65 88.4 94.9" fill="#bdaec2" fill-opacity="0.4" fill-rule="evenodd" stroke="none"/>
    <path d="M175.1 179.45 L175.1 175.4 Q178.5 181.7 180.55 189.0 182.6 196.3 185.85 202.9 L188.45 208.2 Q189.85 211.15 191.65 213.0 194.1 215.0 197.2 215.75 200.3 216.55 202.85 218.35 L200.4 220.45 Q205.8 223.55 205.85 229.6 L203.75 229.75 207.4 231.85 Q205.55 233.75 202.5 234.8 204.0 237.5 206.3 238.95 208.6 240.4 210.2 242.6 211.65 245.2 211.95 249.0 212.25 252.8 212.85 255.7 210.8 257.55 208.15 257.6 206.4 250.35 202.7 247.95 198.95 245.55 193.55 241.7 L191.75 243.5 189.9 237.6 193.25 238.1 Q192.55 236.25 191.45 234.6 194.95 235.65 198.15 234.45 197.35 231.15 197.35 228.25 197.3 225.4 195.0 222.65 193.35 221.0 190.4 219.6 187.45 218.25 184.9 217.4 L184.85 221.95 Q180.0 221.2 174.45 221.95 168.9 222.7 165.25 225.55 L168.2 221.35 166.3 219.25 Q167.9 218.75 168.85 217.85 L177.35 217.55 Q181.95 216.95 184.15 213.05 185.4 210.0 184.0 207.0 L176.0 187.75 Q173.35 181.05 172.5 173.8 174.75 176.1 175.1 179.45 M149.75 115.55 Q150.65 114.0 151.35 113.8 L153.3 112.95 Q153.7 118.9 156.9 123.45 L158.9 118.6 Q159.95 116.15 163.1 115.75 163.85 118.95 161.85 121.4 159.8 123.9 161.0 127.35 157.8 129.75 152.25 128.4 146.65 127.0 143.7 124.6 L144.2 121.35 138.8 119.0 Q141.8 117.3 142.75 114.2 146.55 113.95 149.75 115.55 M98.75 123.5 L103.5 125.6 Q105.8 126.5 105.7 129.45 110.6 130.6 115.2 127.9 120.6 124.75 125.95 124.9 L121.3 127.4 123.8 128.25 Q104.2 137.65 85.65 127.35 88.3 125.5 92.75 126.95 97.2 128.4 100.7 129.0 99.3 127.6 97.35 126.75 95.35 125.9 94.35 124.75 92.85 122.5 92.75 120.25 92.65 117.95 91.85 115.65 L92.55 115.65 Q94.0 119.15 94.8 120.4 95.65 121.65 98.75 123.5" fill="#ffffff" fill-opacity="0.49803922" fill-rule="evenodd" stroke="none"/>
    <path d="M202.75 436.9 L204.45 437.75 Q203.55 441.3 199.65 441.8 204.15 443.0 203.3 445.9 202.45 448.85 203.05 452.15 200.5 453.9 201.25 457.15 202.0 460.45 200.95 463.4 L193.05 466.0 Q185.1 468.45 168.85 471.2 159.15 472.7 145.25 473.2 131.35 473.75 119.05 473.6 77.3 474.05 39.25 459.7 L29.9 455.9 Q24.2 453.4 20.2 449.9 16.2 446.35 17.65 441.8 17.1 441.55 16.15 439.7 15.2 437.85 15.45 437.65 20.75 435.25 15.45 432.05 19.7 427.8 15.5 423.6 L15.8 419.4 Q17.55 417.75 19.65 417.4 26.9 424.05 36.1 427.6 45.25 431.1 51.95 432.7 69.4 437.15 87.65 438.3 L124.9 440.25 Q135.15 440.75 147.3 440.0 159.45 439.3 169.55 437.6 L203.15 432.0 Q207.25 434.8 202.75 436.9" fill="#ff7400" fill-rule="evenodd" stroke="none"/>
    <path d="M34.6 438.15 Q33.95 435.55 31.9 435.45 29.85 435.3 30.05 437.95 30.6 439.85 32.35 441.05 34.15 442.25 34.9 444.05 35.65 446.85 32.85 447.75" fill="none" stroke="#000000" stroke-linecap="round" stroke-linejoin="round" stroke-width="0.7000000000000001"/>
    <path d="M40.95 444.4 L40.5 444.25 40.45 445.6 Q40.6 446.45 41.1 447.55 42.15 449.85 43.05 450.8 M37.4 444.7 Q37.5 446.75 39.5 447.75 40.25 446.75 40.45 445.6 40.3 444.8 40.45 444.25 L38.9 443.75 Q37.8 443.35 37.4 444.7 M40.45 444.25 L40.5 444.25 40.45 444.1 40.45 444.25" fill="none" stroke="#000000" stroke-linecap="round" stroke-linejoin="round" stroke-width="0.7000000000000001"/>
    <path d="M44.45 441.5 L45.6 449.35 45.7 452.05" fill="none" stroke="#000000" stroke-linecap="round" stroke-linejoin="round" stroke-width="0.7000000000000001"/>
    <path d="M50.05 443.95 Q50.1 446.7 50.5 449.45 50.8 451.95 52.1 454.65" fill="none" stroke="#000000" stroke-linecap="round" stroke-linejoin="round" stroke-width="0.7000000000000001"/>
    <path d="M47.95 446.8 Q51.0 447.65 54.2 447.75" fill="none" stroke="#000000" stroke-linecap="round" stroke-linejoin="round" stroke-width="0.7000000000000001"/>
    <path d="M61.7 447.45 Q61.25 449.15 62.2 452.25 63.1 455.4 65.35 454.75 L65.1 451.75 67.15 455.45 Q68.4 457.8 70.5 456.8 71.95 455.5 71.0 453.1 70.05 450.65 68.7 449.65" fill="none" stroke="#000000" stroke-linecap="round" stroke-linejoin="round" stroke-width="0.7000000000000001"/>
    <path d="M77.15 451.25 Q71.85 449.65 72.55 454.9 73.25 457.2 75.3 457.9 77.35 458.55 77.5 455.65 L77.45 455.1 Q75.9 452.85 76.1 451.1 77.1 453.0 77.45 455.1 L77.55 455.25 Q79.15 457.65 81.15 457.65" fill="none" stroke="#000000" stroke-linecap="round" stroke-linejoin="round" stroke-width="0.7000000000000001"/>
    <path d="M83.4 447.9 Q83.65 450.45 84.8 452.95 L85.8 457.45" fill="none" stroke="#000000" stroke-linecap="round" stroke-linejoin="round" stroke-width="0.7000000000000001"/>
    <path d="M87.7 452.4 L81.95 451.75" fill="none" stroke="#000000" stroke-linecap="round" stroke-linejoin="round" stroke-width="0.7000000000000001"/>
    <path d="M90.75 455.3 Q93.35 454.2 94.0 451.7 94.15 448.9 91.35 449.05 89.45 449.85 89.95 453.3 90.5 456.8 91.95 458.25 94.9 460.0 98.25 459.1" fill="none" stroke="#000000" stroke-linecap="round" stroke-linejoin="round" stroke-width="0.7000000000000001"/>
    <path d="M107.65 450.6 Q104.35 449.85 101.9 451.85 100.05 454.45 100.65 457.65" fill="none" stroke="#000000" stroke-linecap="round" stroke-linejoin="round" stroke-width="0.7000000000000001"/>
    <path d="M111.35 448.1 Q111.9 454.25 112.8 460.05 L113.4 457.1 Q113.8 455.35 115.0 454.75 117.6 454.6 119.5 456.65 121.4 459.15 120.15 461.8 117.75 464.1 114.85 462.95" fill="none" stroke="#000000" stroke-linecap="round" stroke-linejoin="round" stroke-width="0.7000000000000001"/>
    <path d="M126.85 454.5 Q126.6 455.65 127.25 457.4 127.95 459.15 129.3 459.35 130.65 459.15 131.25 457.4 131.9 455.65 132.0 454.5 132.0 457.5 134.5 458.15 136.35 458.3 137.7 459.1" fill="none" stroke="#000000" stroke-linecap="round" stroke-linejoin="round" stroke-width="0.7000000000000001"/>
    <path d="M147.75 447.9 L143.65 447.4 Q141.25 447.25 141.95 450.05 L146.3 458.25 145.2 458.75" fill="none" stroke="#000000" stroke-linecap="round" stroke-linejoin="round" stroke-width="0.7000000000000001"/>
    <path d="M147.25 452.05 Q143.0 451.6 139.2 452.85 L138.85 452.95" fill="none" stroke="#000000" stroke-linecap="round" stroke-linejoin="round" stroke-width="0.7000000000000001"/>
    <path d="M153.05 447.6 L149.3 447.5 Q149.1 448.5 150.15 449.4 L151.85 451.0 Q152.95 452.4 153.85 454.95 154.75 457.5 154.0 459.4" fill="none" stroke="#000000" stroke-linecap="round" stroke-linejoin="round" stroke-width="0.7000000000000001"/>
    <path d="M155.4 451.6 L149.65 451.9" fill="none" stroke="#000000" stroke-linecap="round" stroke-linejoin="round" stroke-width="0.7000000000000001"/>
    <path d="M160.85 454.6 Q162.05 454.15 161.9 452.6 161.75 451.05 160.65 450.55 159.15 450.3 159.2 452.3 159.25 454.25 159.7 455.3 161.4 458.65 165.0 458.55 L167.9 458.6 Q169.75 458.5 168.8 456.85" fill="none" stroke="#000000" stroke-linecap="round" stroke-linejoin="round" stroke-width="0.7000000000000001"/>
    <path d="M172.0 455.4 L170.75 451.85 170.7 451.95 170.6 451.85 170.65 451.6 170.1 450.6 170.55 450.0 170.65 451.6 170.75 451.85 171.9 449.9 Q173.1 448.65 174.55 447.9 177.05 446.4 179.8 447.25" fill="none" stroke="#000000" stroke-linecap="round" stroke-linejoin="round" stroke-width="0.7000000000000001"/>
    <path d="M141.5 296.25 L106.5 296.25 90.65 295.7 69.4 294.15" fill="none" stroke="#bdaec2" stroke-linecap="round" stroke-linejoin="round" stroke-width="1.4000000000000001"/>
    <path d="M141.5 336.85 L106.5 336.85 90.65 336.3 69.4 334.75" fill="none" stroke="#bdaec2" stroke-linecap="round" stroke-linejoin="round" stroke-width="1.4000000000000001"/>
    <path d="M143.6 375.35 L108.6 375.35 92.75 374.8 71.5 373.25" fill="none" stroke="#bdaec2" stroke-linecap="round" stroke-linejoin="round" stroke-width="1.4000000000000001"/>
    <path d="M144.0 413.85 L109.0 413.85 93.15 413.3 71.9 411.75" fill="none" stroke="#bdaec2" stroke-linecap="round" stroke-linejoin="round" stroke-width="1.4000000000000001"/>
    <path d="M149.9 522.35 L114.9 522.35 99.05 521.8 77.8 520.25" fill="none" stroke="#bdaec2" stroke-linecap="round" stroke-linejoin="round" stroke-width="1.4000000000000001"/>
    <path d="M148.5 556.65 L113.5 556.65 97.65 556.1 76.4 554.55" fill="none" stroke="#bdaec2" stroke-linecap="round" stroke-linejoin="round" stroke-width="1.4000000000000001"/>
    <path d="M150.4 588.15 L115.4 588.15 99.55 587.6 78.3 586.05" fill="none" stroke="#bdaec2" stroke-linecap="round" stroke-linejoin="round" stroke-width="1.4000000000000001"/>
  </g>
</svg>
