<?xml version="1.0" encoding="UTF-8" standalone="no"?>
<svg xmlns:xlink="http://www.w3.org/1999/xlink" height="381.0px" width="257.45px" xmlns="http://www.w3.org/2000/svg">
  <g transform="matrix(1.0, 0.0, 0.0, 1.0, -0.3, -245.6)">
    <path d="M0.3 245.6 L257.75 245.6 257.65 516.9 257.05 556.65 Q256.0 562.55 252.15 569.9 L247.8 577.9 Q231.65 600.35 205.75 611.5 198.7 614.5 191.65 616.95 172.7 623.5 153.55 625.85 L138.8 626.55 Q124.6 627.0 103.8 624.1 89.5 622.1 75.4 616.95 68.9 614.6 62.45 611.55 41.95 601.9 28.7 582.0 L24.0 574.2 Q19.85 567.05 18.55 561.15 L10.0 484.95 0.6 255.15 0.3 245.6" fill="#ffffff" fill-opacity="0.4" fill-rule="evenodd" stroke="none"/>
  </g>
</svg>
