<?xml version="1.0" encoding="UTF-8" standalone="no"?>
<svg xmlns:xlink="http://www.w3.org/1999/xlink" height="25.05px" width="80.1px" xmlns="http://www.w3.org/2000/svg">
  <g transform="matrix(1.0, 0.0, 0.0, 1.0, 40.05, 12.5)">
    <path d="M25.05 -11.05 Q30.6 -10.25 34.85 -8.95 L39.3 -7.5 40.05 9.55 32.55 11.1 3.1 12.55 -28.3 11.9 -40.05 10.25 -39.8 -6.65 -36.4 -7.9 -28.75 -10.3 Q-24.2 -11.5 -16.3 -12.05 L-0.9 -12.5 25.05 -11.05" fill="url(#gradient0)" fill-rule="evenodd" stroke="none"/>
    <path d="M37.65 -8.1 L39.2 -7.75 39.6 9.05 38.75 9.1 37.65 -8.1 M3.6 -7.5 L2.1 -7.9 -0.45 -7.9 -1.65 -7.3 -0.95 10.15 -2.4 10.25 -3.15 -7.5 -4.45 -7.85 -6.75 -7.85 -8.5 -7.25 -7.9 10.4 -9.0 10.35 -9.8 -7.45 -12.6 -7.6 -14.4 -7.35 -14.4 10.4 -15.25 10.45 -16.55 -7.4 -19.0 -7.5 -20.5 -7.25 -20.3 10.35 -21.55 10.4 -21.95 -7.25 -23.7 -7.35 -26.0 -7.15 -25.65 10.35 -26.3 10.3 -27.4 -7.2 -28.95 -7.5 -30.5 -7.1 -30.35 10.35 -31.0 10.35 -32.4 -7.4 -33.55 -7.5 -34.45 -7.1 -35.05 10.4 -35.8 10.4 -35.7 -7.0 -37.65 -7.05 -38.85 10.1 -39.25 10.1 -39.5 -6.85 -39.9 -6.9 -38.7 -7.0 -34.05 -7.95 -25.1 -8.55 37.15 -8.75 37.35 -8.4 36.25 -8.5 36.65 -7.9 37.15 9.25 36.25 9.15 35.3 -7.9 33.35 -8.45 33.25 -7.65 33.45 9.45 32.85 9.4 32.05 -7.85 30.8 -8.15 29.25 -7.75 29.1 9.6 28.25 9.65 27.1 -8.05 25.4 -8.15 24.55 -7.55 24.0 9.85 23.15 9.85 22.75 -7.6 20.3 -8.2 18.3 -7.45 18.05 10.0 17.15 10.05 16.5 -7.9 14.1 -8.2 12.05 -7.7 12.15 10.1 11.05 10.2 10.15 -7.65 9.6 -8.05 6.55 -8.0 5.25 -7.55 5.55 10.3 4.4 10.3 3.6 -7.5" fill="#ffffeb" fill-rule="evenodd" stroke="none"/>
  </g>
  <defs>
    <linearGradient gradientTransform="matrix(0.0489, 0.0, 0.0, 0.0489, 0.0, 0.0)" gradientUnits="userSpaceOnUse" id="gradient0" spreadMethod="pad" x1="-819.2" x2="819.2">
      <stop offset="0.0" stop-color="#e5e5e5"/>
      <stop offset="1.0" stop-color="#f2f0e6"/>
    </linearGradient>
  </defs>
</svg>
