<?xml version="1.0" encoding="UTF-8" standalone="no"?>
<svg xmlns:xlink="http://www.w3.org/1999/xlink" height="192.9px" width="96.35px" xmlns="http://www.w3.org/2000/svg">
  <g transform="matrix(1.0, 0.0, 0.0, 1.0, -3.6, -41.85)">
    <path d="M9.65 95.65 L5.7 95.65 Q6.5 94.5 7.9 94.65 8.55 95.5 9.65 95.65 M27.4 122.05 L33.1 121.6 Q35.8 121.9 38.7 121.65 40.6 120.8 42.05 120.4 L46.05 121.65 27.4 122.05 M37.85 118.8 L40.8 118.05 Q45.15 117.6 49.1 117.9 53.0 117.65 57.05 118.05 L37.85 118.8 M39.95 130.3 L39.55 130.8 39.5 130.3 39.95 130.3 M35.2 130.35 Q33.95 130.6 33.55 131.15 L32.0 130.4 35.2 130.35 M51.55 130.1 L45.15 131.15 Q44.0 130.85 43.0 130.25 L51.55 130.1 M49.85 139.75 L49.7 139.8 49.6 139.75 49.85 139.75 M43.45 139.6 L40.65 139.95 36.75 139.8 Q34.4 139.75 33.55 141.0 32.35 139.75 30.9 139.3 L43.45 139.6 M28.5 119.1 Q30.1 118.1 31.55 118.5 L33.5 118.95 28.5 119.1 M5.5 102.3 L5.75 102.6 Q6.8 103.8 8.25 104.45 L4.2 103.5 3.6 103.35 5.5 102.3 M4.2 103.5 L5.75 102.6 4.2 103.5 M5.75 108.1 Q6.6 105.85 9.4 107.0 L5.75 108.1 M9.3 112.15 Q7.4 112.45 5.9 111.4 L5.4 111.0 9.3 112.15 M11.95 112.9 L16.75 114.3 Q14.05 114.3 11.95 112.9 M5.05 115.4 L11.2 115.85 Q11.85 116.45 13.0 116.8 L5.05 115.4" fill="#ffffff" fill-rule="evenodd" stroke="none"/>
    <path d="M76.8 94.6 Q78.0 93.5 79.4 93.6 L82.2 93.2 82.3 94.15 Q83.9 93.45 85.65 93.45 87.4 93.4 89.15 92.55 L89.65 93.45 Q92.45 92.95 95.1 91.8 L95.15 92.35 96.55 91.65 M96.15 95.3 L93.6 95.0 92.45 96.65 Q92.0 94.65 91.5 95.5 L90.2 96.75 86.2 97.85 83.7 95.05 Q82.75 97.7 79.35 97.25 76.0 96.8 74.55 98.6 M9.65 95.65 Q8.55 95.5 7.9 94.65 6.5 94.5 5.7 95.65 L5.5 95.9 4.65 95.65 4.3 95.65 M9.65 95.65 L10.9 95.65 M81.2 120.55 L79.1 120.6 78.25 122.0 77.1 120.6 74.95 120.55 M46.05 121.65 L42.05 120.4 Q40.6 120.8 38.7 121.65 35.8 121.9 33.1 121.6 L27.4 122.05 M57.05 118.05 Q53.0 117.65 49.1 117.9 45.15 117.6 40.8 118.05 L37.85 118.8 M43.0 130.25 L42.25 129.75 Q41.1 128.9 39.95 130.3 L39.55 130.8 39.5 130.3 39.45 129.75 35.2 130.35 Q33.95 130.6 33.55 131.15 L32.0 130.4 Q30.15 129.85 28.15 130.45 M51.55 130.1 L45.15 131.15 Q44.0 130.85 43.0 130.25 M49.85 139.75 L49.7 139.8 49.6 139.75 Q47.7 138.85 45.35 139.3 L43.45 139.6 40.65 139.95 36.75 139.8 Q34.4 139.75 33.55 141.0 32.35 139.75 30.9 139.3 L27.75 139.2 M49.85 139.75 Q51.55 138.9 53.95 139.4 L58.0 139.95 58.5 139.95 M81.55 139.95 L78.45 139.2 Q77.05 138.9 76.4 140.7 M33.5 118.95 L34.55 119.1 37.85 118.8 M28.5 119.1 Q30.1 118.1 31.55 118.5 L33.5 118.95 M16.4 100.35 L10.1 100.55 9.55 100.5 4.3 100.75 M5.5 102.3 L5.75 102.6 6.1 102.3 M8.25 104.45 Q6.8 103.8 5.75 102.6 L4.2 103.5 M8.25 104.45 Q9.6 105.05 11.25 105.15 M9.4 107.0 Q6.6 105.85 5.75 108.1 M9.3 112.15 Q7.4 112.45 5.9 111.4 L5.4 111.0 M9.3 112.15 L10.55 111.75 11.95 112.9 M16.75 114.3 Q14.05 114.3 11.95 112.9 M13.0 116.8 L15.65 117.25 M13.0 116.8 Q11.85 116.45 11.2 115.85 L5.05 115.4 M96.15 117.3 Q93.35 116.95 92.5 119.5 M89.2 119.1 Q87.95 119.5 87.0 120.55 86.05 119.95 84.8 119.85 M99.45 130.45 Q96.75 128.95 92.85 130.55 88.95 132.15 86.0 131.65 84.55 134.1 82.0 133.9 L81.2 133.75 M92.9 124.95 Q91.25 124.85 90.35 126.05 L90.35 126.1 Q90.3 126.5 90.3 126.1 L90.35 126.05 Q89.15 124.05 87.0 125.7 M77.5 127.15 L82.0 126.55 83.7 126.05 M92.85 135.2 L88.45 135.65 Q86.1 136.2 85.85 138.45 84.85 138.5 84.1 137.75" fill="none" stroke="#999999" stroke-linecap="round" stroke-linejoin="round" stroke-width="1.0"/>
    <path d="M20.45 84.4 L21.15 143.6" fill="none" stroke="#ff0000" stroke-linecap="round" stroke-linejoin="round" stroke-width="1.0"/>
    <path d="M75.45 42.9 L73.95 46.05 56.7 45.0 36.9 45.55 27.3 48.7 21.7 46.6 38.45 42.4 57.2 41.85 75.45 42.9" fill="#ffffff" fill-rule="evenodd" stroke="none"/>
    <path d="M67.6 70.25 Q70.2 61.1 75.2 55.35 L74.65 55.0 Q76.35 54.15 78.0 53.75 L78.5 52.95 Q78.8 58.65 78.1 64.55 77.35 70.4 77.8 76.25 79.55 93.8 79.55 111.4 L79.45 117.15 Q78.6 129.15 79.6 141.05 80.45 145.5 82.0 149.8 L82.6 151.4 Q84.55 156.55 85.45 161.9 86.6 171.25 86.55 181.6 86.45 192.0 85.1 201.35 83.45 210.2 80.8 218.7 78.35 226.5 78.05 234.75 77.95 231.95 76.55 229.5 74.8 226.4 74.15 222.95 73.9 219.65 74.8 216.3 75.65 213.0 76.1 209.7 77.15 188.7 71.1 168.3 L69.95 161.85 Q69.1 155.5 69.35 149.1 69.8 139.5 69.9 129.8 69.85 120.55 68.7 111.4 L68.1 107.45 65.65 97.0 Q64.35 92.0 64.6 86.35 65.05 79.4 67.6 70.25" fill="#ffffff" fill-opacity="0.29803923" fill-rule="evenodd" stroke="none"/>
  </g>
</svg>
